<?xml version="1.0" encoding="utf-8"?>
<!-- Generator: Adobe Illustrator 27.5.0, SVG Export Plug-In . SVG Version: 6.00 Build 0)  -->
<svg version="1.1" xmlns="http://www.w3.org/2000/svg" xmlns:xlink="http://www.w3.org/1999/xlink" x="0px" y="0px"
	 viewBox="0 0 500 500"  xml:space="preserve">

<g id="OBJECTS">
	<ellipse id="XMLID_1753_" style="fill:#EEEFEE;" cx="259.064" cy="410.642" rx="169.083" ry="7.852"/>
	<g id="XMLID_1_">
		<rect id="XMLID_1142_" x="55.254" y="74.897" style="fill:#D6DAF3;" width="222.243" height="121.707"/>
		
			<line id="XMLID_1168_" style="fill:none;stroke:#FFFFFF;stroke-width:2.1469;stroke-miterlimit:10;" x1="166.376" y1="74.897" x2="166.376" y2="196.604"/>
		
			<line id="XMLID_1173_" style="fill:none;stroke:#FFFFFF;stroke-width:2.1469;stroke-miterlimit:10;" x1="55.254" y1="135.751" x2="277.497" y2="135.751"/>
	</g>
	<g id="XMLID_7_">
		<g id="XMLID_3_">
			
				<path id="XMLID_1034_" style="fill:none;stroke:#D6AD4A;stroke-width:2.1469;stroke-linecap:round;stroke-linejoin:round;stroke-miterlimit:10;" d="
				M226.622,310.818c-8.085,28.121-15.408,56.46-21.96,84.978"/>
			
				<path id="XMLID_1026_" style="fill:none;stroke:#D6AD4A;stroke-width:2.1469;stroke-linecap:round;stroke-linejoin:round;stroke-miterlimit:10;" d="
				M288.407,318.217c-5.503,27.306-10.06,54.794-13.663,82.413"/>
			
				<path id="XMLID_838_" style="fill:none;stroke:#D6AD4A;stroke-width:2.1469;stroke-linecap:round;stroke-linejoin:round;stroke-miterlimit:10;" d="
				M313.217,311.929c2.048,28.769,4.411,38.322,10.457,88.235"/>
			<path id="XMLID_8_" style="fill:#FFDC75;" d="M269.722,278.08c-15.837,1.673-35.164,5.582-41.169,7.512
				c-6.005,1.93-11.581,6.063-13.872,11.939c-2.291,5.876-0.481,13.474,4.962,16.66c2.252,1.318,4.877,1.814,7.449,2.256
				c23.866,4.102,48.251,5.377,72.374,3.257c5.073-0.446,10.76-0.84,15.472-2.773c4.711-1.932,7.764-3.495,9.722-8.195l-0.004-0.016
				c6.184-12.633,7.343-40.885,9.577-56.126c4.273-29.152,5.457-59.842-5.604-87.151c-2.136-5.275-4.719-10.634-9.123-14.239
				c-13.305-10.893-28.375-3.158-31.562,1.313c0,0-20.389,44.104-18.222,104.306V278.08z"/>
			<path id="XMLID_11_" style="fill:#EFBF63;" d="M310.407,294.716c0.987,0.579,1.866,1.393,2.405,2.395
				c0.54,1.002,0.592,2.343-0.164,3.198c-1.421,1.606-2.716,3.729-4.584,4.804c-17.23,9.919-48.535,8.411-71.25-0.653
				c-1.167-0.466-5.906-0.536-6.682-7.764c-0.227-2.113,3.545-4.51,5.308-5.719c3.322-2.277,7.292-3.463,11.273-4.156
				C246.714,286.821,283.663,279.012,310.407,294.716z"/>
			<g id="XMLID_5_">
				<path id="XMLID_14_" style="fill:#D6AD4A;" d="M245.959,307.489c9.003,1.313,18.009,2.578,27.056,2.981
					c4.518,0.185,9.045,0.213,13.531-0.169c4.479-0.383,8.94-1.101,13.181-2.482c2.119-0.687,4.18-1.531,6.134-2.567l0.733-0.388
					l0.71-0.423c0.44-0.283,0.861-0.581,1.292-0.914c0.842-0.663,1.623-1.409,2.337-2.22c1.427-1.625,2.583-3.502,3.507-5.493
					l0.329-0.737l0.322-0.789c0.188-0.496,0.368-1.007,0.537-1.533c0.331-1.047,0.602-2.118,0.829-3.205
					c0.455-2.174,0.738-4.404,1-6.656l0.773-6.78l1.477-13.562c0.459-4.522,0.904-9.045,1.299-13.57
					c0.391-4.525,0.746-9.054,1.001-13.585c0.144-2.266,0.259-4.532,0.342-6.799c0.111-2.267,0.167-4.534,0.215-6.802
					c0.109-4.535,0.09-9.071-0.017-13.603c-0.035-2.267-0.168-4.529-0.246-6.794c-0.116-2.263-0.293-4.522-0.436-6.783l-0.658-6.764
					c-0.293-2.245-0.547-4.497-0.872-6.738c-0.676-4.451-1.613-8.876-3.242-13.023c-1.621-4.129-4.064-7.978-7.545-10.687
					l-0.04-0.033l-0.008-0.007c-0.268-0.239-0.591-0.501-0.908-0.733c-0.319-0.238-0.649-0.463-0.984-0.679
					c-0.673-0.43-1.375-0.809-2.099-1.135c-0.361-0.165-0.73-0.308-1.103-0.438c-0.373-0.127-0.75-0.242-1.131-0.331
					c-0.382-0.09-0.765-0.168-1.152-0.209c-0.385-0.071-0.774-0.053-1.161-0.084l-0.097-0.008c-0.367-0.029-0.641-0.35-0.612-0.717
					c0.029-0.361,0.341-0.632,0.701-0.613c0.442,0.025,0.89,0.005,1.326,0.076c0.441,0.042,0.874,0.122,1.304,0.218
					c0.429,0.095,0.851,0.216,1.266,0.352c0.415,0.138,0.823,0.29,1.221,0.465c0.798,0.346,1.567,0.748,2.302,1.204
					c0.366,0.23,0.727,0.468,1.078,0.723c0.357,0.256,0.685,0.511,1.042,0.821l-0.048-0.04c3.784,2.856,6.443,6.94,8.197,11.225
					c1.778,4.308,2.766,8.848,3.49,13.377c0.346,2.26,0.621,4.529,0.934,6.794c0.263,2.27,0.482,4.546,0.718,6.819
					c0.163,2.279,0.359,4.557,0.495,6.837c0.097,2.282,0.253,4.563,0.3,6.847c0.119,4.567,0.149,9.135,0.049,13.7
					c-0.043,2.282-0.093,4.565-0.2,6.844c-0.078,2.281-0.189,4.56-0.327,6.837c-0.246,4.556-0.592,9.104-0.973,13.647
					c-0.377,4.544-0.831,9.079-1.311,13.609l-1.523,13.578l-0.795,6.782c-0.271,2.266-0.566,4.556-1.051,6.836
					c-0.937,4.571-2.875,9.056-6.023,12.654c-0.791,0.895-1.665,1.725-2.62,2.46c-0.472,0.36-0.983,0.715-1.504,1.041l-0.761,0.444
					l-0.779,0.405c-2.077,1.078-4.25,1.945-6.465,2.642c-4.436,1.401-9.031,2.095-13.614,2.447
					c-4.589,0.343-9.185,0.298-13.754,0.038c-9.143-0.545-18.174-1.955-27.156-3.401c-0.334-0.053-0.562-0.367-0.509-0.701
					C245.318,307.669,245.628,307.442,245.959,307.489z"/>
			</g>
		</g>
		<path id="XMLID_1148_" style="fill:#C9CDDF;" d="M304.507,255.826l-11.427,6.745l-40.896,1.433l-22.061,11.643
			c-21.097,13.307-19.944,16.107-23.257,22.511c-3.313,6.404-3.47,12.784-4.751,19.88c-4.256,23.585-4.492,51.678-3.23,75.611
			h13.326c6.754-23.733,14.201-55.102,18.027-79.479c0,0,2.887-7.596,5.808-8.422h0c-1.414,4.72-1.754,9.533-2.692,14.729
			c-4.256,23.585-4.492,51.678-3.23,75.611h13.326c6.754-23.732,14.201-55.102,18.027-79.479c6.895-2.253,13.631-4.994,20.14-8.195
			c5.387-2.649,10.723-5.696,14.721-10.173c4.936-5.527,7.463-12.871,8.385-20.224C305.642,270.664,305.075,263.215,304.507,255.826
			z"/>
		<path id="XMLID_1224_" style="fill:#EDB9A4;" d="M220.091,258.26c9.587-2.339,29.746-24.202,34.459-33.266l1.992-16.192
			l-9.441-2.623c-6.612,13.026-21.068,37.383-32.39,46.613"/>
		<g id="XMLID_914_">
			<path id="XMLID_15_" style="fill:#626DB1;" d="M298.25,170.831c3.999,1.828,7.99,3.685,11.773,5.927
				c3.523,2.088,12.196,8.851,12.175,27.9c-0.005,4.079-0.981,9.654-2.667,13.367c-1.421,3.131-2.843,6.263-4.264,9.394
				c-1.734-0.648-3.495-1.259-5.269-1.85c-0.386,2.249-2.258,8.447-2.831,10.655c-2.3,8.861-2.648,18.914-2.929,28.064
				l-54.537-0.561c1.823-23.125,3.029-27.912,5.396-52.721c-3.903-0.304-7.202-1.639-10.971-2.699
				c0.842-9.087,5.82-19.883,11.499-27.027c5.679-7.144,13.591-9.233,22.648-10.355C278.272,170.926,292.851,168.364,298.25,170.831
				z"/>
		</g>
		<path id="XMLID_17_" style="fill:#F7C5B4;" d="M296.833,151.61c0.162-0.727,0.933-1.229,1.676-1.187
			c0.744,0.042,1.412,0.558,1.751,1.221c0.339,0.663,0.377,1.451,0.228,2.18c-0.206,1.004-0.864,2.23-1.869,2.433
			c-0.04,4.033-0.178,6.315-0.282,10.953l-0.056,1.994c-0.013,0.566-0.023,1.113-0.032,1.637c0,0,1.46,0.516,3.581,1.606
			c0,0-1.537,9.188-17.022,7.547c0,0-11.381-2.375-8.662-8.781l5.963-0.842c-0.045-1.425-0.09-2.995-0.09-2.995
			c-3.927,0.199-7.729-1.457-9.702-4.834c-0.653-1.119-1.049-2.37-1.344-3.631c-1.756-7.507-0.083-15.342,1.588-22.868
			c0,0,6.031-12.798,18.529-7.882c12.498,4.917,7.171,24.256,7.171,24.256"/>
		<g id="XMLID_1467_">
			<path id="XMLID_31_" style="fill:#DA806C;" d="M294.327,161.739c0,0-0.477,0.744-1.385,1.721c-0.457,0.481-1.011,1.03-1.68,1.539
				c-0.657,0.522-1.426,1.008-2.249,1.392c-0.826,0.378-1.699,0.648-2.525,0.804c-0.411,0.089-0.815,0.128-1.193,0.173
				c-0.379,0.043-0.739,0.055-1.069,0.071c-0.658,0.024-1.219,0.003-1.601-0.021c-0.385-0.027-0.605-0.042-0.605-0.042
				s0.215-0.042,0.591-0.116c0.38-0.05,0.904-0.178,1.539-0.351c0.634-0.157,1.365-0.345,2.126-0.575
				c0.761-0.231,1.55-0.512,2.304-0.872c0.378-0.178,0.752-0.367,1.111-0.572c0.352-0.219,0.713-0.411,1.043-0.635
				c0.672-0.428,1.278-0.872,1.813-1.243c0.529-0.384,0.971-0.704,1.28-0.928C294.145,161.864,294.327,161.739,294.327,161.739z"/>
		</g>
		<path id="XMLID_1468_" style="fill:#3C3C3B;" d="M299.245,151.338c3.495,0.487,14.3-22.594,0.418-32.343
			c-1.709-1.201-3.947-1.374-6.027-1.571c-6.041-0.572-12.49,0.76-17.045,4.769c-0.544,0.479-1.086,1.009-1.779,1.22
			c-0.571,0.174-1.183,0.113-1.781,0.116c-3.783,0.025-7.396,3.387-7.184,7.164c0.127,2.268,1.486,4.316,3.192,5.816
			c1.864,1.64,4.215,2.761,6.687,2.993c2.472,0.232,5.052-0.465,6.96-2.053c0.585,1.367,2.055,2.204,3.531,2.382
			c1.476,0.178,2.963-0.205,4.364-0.702c1.841-0.653,3.609-1.511,5.262-2.553c0.666-0.42,1.39-1.015,1.34-1.801
			c-0.83,2.024-0.561,4.273-0.786,6.449C296.189,143.236,295.785,147.683,299.245,151.338"/>
		<g id="XMLID_1310_">
			<path id="XMLID_29_" style="fill:#3C3C3B;" d="M271.363,146.632c0,0,0.383-0.079,0.984-0.128
				c0.596-0.052,1.398-0.036,2.191,0.068c0.792,0.115,1.569,0.318,2.128,0.533c0.561,0.211,0.913,0.397,0.913,0.397l0.005,0.002
				c0.08,0.042,0.11,0.141,0.068,0.221c-0.038,0.072-0.123,0.104-0.197,0.078c0,0-1.467-0.507-2.989-0.715
				c-1.521-0.231-3.075-0.158-3.075-0.158c-0.082,0.004-0.152-0.06-0.156-0.142c-0.003-0.074,0.048-0.139,0.119-0.153
				L271.363,146.632z"/>
		</g>
		<path id="XMLID_1320_" style="fill:#3C3C3B;" d="M275.13,148.238c-0.042,0.721-0.66,1.272-1.382,1.23
			c-0.721-0.042-1.272-0.66-1.231-1.382c0.042-0.721,0.661-1.272,1.382-1.23C274.621,146.898,275.171,147.516,275.13,148.238z"/>
		<g id="XMLID_1317_">
			<path id="XMLID_27_" style="fill:#3C3C3B;" d="M291.022,148.963c0,0-1.771-0.522-3.596-0.567
				c-1.821-0.085-3.623,0.305-3.623,0.305c-0.088,0.019-0.175-0.037-0.194-0.125c-0.018-0.081,0.028-0.161,0.104-0.188l0.005-0.002
				c0,0,0.444-0.159,1.139-0.304c0.693-0.15,1.641-0.239,2.588-0.207c0.947,0.044,1.883,0.21,2.562,0.413
				c0.686,0.202,1.108,0.391,1.108,0.391l0.01,0.004c0.075,0.034,0.109,0.122,0.075,0.197
				C291.17,148.949,291.093,148.984,291.022,148.963z"/>
		</g>
		<path id="XMLID_1316_" style="fill:#3C3C3B;" d="M286.026,149.393c-0.08,0.718,0.438,1.365,1.156,1.445
			c0.718,0.08,1.365-0.438,1.445-1.156c0.08-0.718-0.438-1.365-1.156-1.445S286.106,148.674,286.026,149.393z"/>
		<path id="XMLID_1315_" style="fill:#3C3C3B;" d="M278.635,145.911c0.328-0.79,0.341-1.711-0.009-2.492
			c-0.158,0.247-0.549,0.3-0.767,0.103c-0.091-0.082-0.155-0.2-0.266-0.251c-0.09-0.042-0.194-0.032-0.293-0.033
			c-0.437-0.002-0.844-0.207-1.253-0.359c-1.793-0.667-3.931-0.301-5.4,0.925c0.417,0.397,1.073,0.324,1.649,0.337
			c2.243,0.049,3.827,1.754,6.069,1.868C278.365,146.009,278.589,146.023,278.635,145.911z"/>
		<path id="XMLID_1314_" style="fill:#3C3C3B;" d="M283.598,146.366c-0.126-0.846,0.084-1.743,0.613-2.416
			c0.093,0.278,0.46,0.424,0.719,0.286c0.108-0.058,0.199-0.156,0.319-0.18c0.097-0.019,0.196,0.016,0.292,0.039
			c0.425,0.104,0.868,0.004,1.303-0.045c1.901-0.213,3.887,0.661,5.014,2.206c-0.501,0.284-1.119,0.054-1.681-0.073
			c-2.188-0.497-4.138,0.774-6.34,0.342C283.837,146.526,283.616,146.486,283.598,146.366z"/>
		<g id="XMLID_1308_">
			<path id="XMLID_25_" style="fill:#DA806C;" d="M279.892,148.773c0,0-0.537,1.898-0.819,3.835
				c-0.074,0.483-0.139,0.968-0.18,1.425c-0.021,0.239-0.039,0.407,0.007,0.546c0.034,0.112,0.137,0.242,0.253,0.325
				c0.234,0.17,0.52,0.238,0.722,0.272c0.21,0.031,0.33,0.049,0.33,0.049l0.006,0.001c0.109,0.016,0.184,0.118,0.168,0.227
				c-0.015,0.101-0.103,0.172-0.202,0.17c0,0-0.127-0.003-0.35-0.008c-0.221-0.02-0.582-0.018-0.977-0.264
				c-0.19-0.125-0.383-0.296-0.5-0.587c-0.107-0.266-0.086-0.561-0.067-0.782c0.035-0.471,0.085-0.972,0.161-1.471
				c0.16-0.995,0.408-1.974,0.653-2.687c0.244-0.716,0.451-1.17,0.451-1.17l0.003-0.007c0.042-0.092,0.15-0.132,0.242-0.09
				C279.875,148.595,279.916,148.688,279.892,148.773z"/>
		</g>
		<g id="XMLID_1309_">
			<path id="XMLID_23_" style="fill:#DA806C;" d="M282.483,157.937c0,0-0.042,0.062-0.115,0.171
				c-0.068,0.099-0.209,0.289-0.389,0.441c-0.355,0.337-0.951,0.642-1.595,0.756c-0.645,0.101-1.311,0.006-1.756-0.201
				c-0.227-0.088-0.396-0.21-0.509-0.292c-0.112-0.085-0.176-0.134-0.176-0.134c-0.085-0.064-0.101-0.185-0.036-0.27
				c0.059-0.078,0.166-0.098,0.248-0.05l0.009,0.005c0,0,0.246,0.141,0.641,0.251c0.391,0.117,0.942,0.174,1.481,0.085
				c0.54-0.079,1.049-0.304,1.386-0.538c0.33-0.212,0.54-0.449,0.54-0.449c0.065-0.073,0.176-0.079,0.249-0.015
				c0.067,0.059,0.078,0.158,0.03,0.23L282.483,157.937z"/>
		</g>
		<g id="XMLID_66_">
			<path id="XMLID_1205_" style="fill:#474E7E;" d="M300.392,222.467c0,0-0.003-0.616,0.128-1.499
				c0.123-0.885,0.375-2.04,0.709-3.17c0.341-1.128,0.763-2.231,1.147-3.039c0.375-0.81,0.717-1.323,0.717-1.323
				s0.004,0.616-0.127,1.499c-0.122,0.886-0.375,2.04-0.71,3.17c-0.341,1.128-0.765,2.231-1.149,3.038
				C300.733,221.954,300.392,222.467,300.392,222.467z"/>
		</g>
		<g id="XMLID_64_">
			<path id="XMLID_33_" style="fill:#474E7E;" d="M255.197,210.898c0,0-0.111-0.543-0.113-1.346
				c-0.012-0.803,0.086-1.862,0.301-2.901c0.225-1.037,0.567-2.051,0.931-2.775c0.351-0.729,0.711-1.155,0.711-1.155
				s-0.022,0.553-0.121,1.332c-0.095,0.782-0.258,1.806-0.472,2.821c-0.218,1.014-0.49,2.022-0.745,2.774
				C255.442,210.4,255.197,210.898,255.197,210.898z"/>
		</g>
		<g id="XMLID_858_">
			<path id="XMLID_12_" style="fill:#A0ABE4;" d="M269.722,275.933c-1.501,0.766-3.027,1.489-4.507,2.291
				c-1.492,0.779-2.971,1.578-4.422,2.43c-1.468,0.819-2.882,1.732-4.3,2.629l-2.094,1.397l-2.051,1.453
				c-2.702,1.979-5.272,4.137-7.59,6.528c-2.296,2.404-4.36,5.043-5.879,7.958c-0.38,0.682-0.57,1.448-0.848,2.247
				c-0.251,0.795-0.489,1.597-0.723,2.401c-0.455,1.611-0.89,3.23-1.285,4.86c-0.399,1.628-0.768,3.263-1.125,4.901
				c-0.343,1.64-0.661,3.285-0.949,4.935c-0.282,1.651-0.529,3.306-0.745,4.964c-0.206,1.661-0.368,3.319-0.508,4.987
				c-0.129,1.677-0.264,3.367-0.424,5.052l-0.267,2.533l-0.171,1.277l-0.112,0.655l-0.074,0.347l-0.057,0.203l-0.047,0.132
				l-0.061,0.125c-0.021,0.032,0.002,0.01-0.076,0.115c-0.272,0.128,0.34,0.029-0.686,0.308l0.838-0.743l-1.139,27.934
				c-0.171,4.657-0.281,9.315-0.407,13.972c-0.049,2.329-0.105,4.659-0.095,6.987c-0.013,1.165,0.01,2.329,0.033,3.493
				c-0.003,1.167,0.09,2.325,0.156,3.491c-0.132-1.156-0.292-2.316-0.355-3.481c-0.098-1.164-0.154-2.33-0.195-3.495
				c-0.109-2.332-0.152-4.664-0.202-6.997c-0.049-2.333-0.066-4.665-0.054-6.998l0.041-6.997c0.05-4.664,0.1-9.328,0.228-13.99
				c0.127-4.662,0.243-9.323,0.433-13.985l0.838-0.743c-1.012,0.276-0.396,0.162-0.658,0.281l-0.056,0.081
				c-0.011,0.016-0.023,0.044-0.026,0.054l0.005-0.017l0.027-0.102l0.056-0.272l0.098-0.591l0.159-1.229l0.252-2.496
				c0.151-1.672,0.278-3.342,0.4-5.026l0.221-2.539l0.299-2.531c0.227-1.683,0.485-3.36,0.778-5.031
				c0.595-3.339,1.303-6.656,2.161-9.934c0.421-1.641,0.882-3.272,1.365-4.898c0.247-0.811,0.499-1.622,0.767-2.43
				c0.284-0.784,0.524-1.669,0.974-2.459c1.65-3.046,3.879-5.7,6.287-8.107c2.438-2.389,5.106-4.511,7.891-6.443l2.111-1.415
				l2.169-1.321c1.467-0.843,2.926-1.699,4.435-2.46c1.491-0.794,3.01-1.533,4.539-2.251
				C266.614,277.24,268.181,276.617,269.722,275.933z"/>
		</g>
		<path id="XMLID_916_" style="fill:#435363;" d="M212.407,392.955c0.417,1.599-0.167,7.922-1.149,9.373
			c-1.011,1.493-2.943,2.155-4.731,2.64c-7.208,1.956-14.683,2.864-22.034,2.561c-0.942-0.039-1.945-0.12-2.649-0.673
			c-1.125-0.883-0.99-2.675-0.106-3.878c0.884-1.203,2.304-1.951,3.68-2.622c5.717-2.787,7.628-4.165,13.417-7.616L212.407,392.955z
			"/>
		<path id="XMLID_1113_" style="fill:#435363;" d="M243.531,395.796c0.417,1.599,0.056,8.136-0.926,9.587
			c-1.011,1.493-2.943,2.155-4.731,2.64c-7.208,1.956-14.683,2.864-22.034,2.561c-0.942-0.039-1.945-0.12-2.649-0.673
			c-1.125-0.884-0.99-2.675-0.106-3.878c0.884-1.203,2.304-1.951,3.68-2.622c5.717-2.787,7.552-4.165,13.341-7.616H243.531z"/>
		<path id="XMLID_1025_" style="fill:#F7C5B4;" d="M300.392,222.467l13.602,4.485c-1.418,7.215-3.324,12.485-5.941,19.357
			c-1.291,3.39-2.76,6.786-5.129,9.533c-4.707,5.459-8.376,6.487-21.439,5.685c-7.723-0.474-15.194-1.868-22.686-3.801l-8.176-0.907
			c-2.171,0.154-3.392,2.9-5.543,3.23c-0.215,0.033-0.464,0.029-0.615-0.128c-0.182-0.19-0.128-0.497-0.059-0.751
			c0.247-0.904,0.538-1.795,0.871-2.671c-1.123,1.697-3.172,4.298-4.845,3.491c-1.029-0.475,0.52-2.027,1.082-2.902
			c-1.179,0.987-2.481,1.828-3.867,2.496c-0.482,0.233-1.182,0.385-1.451-0.078c-0.119-0.205-0.095-0.461-0.051-0.695
			c0.206-1.098,0.769-2.125,1.584-2.888c-0.914,0.778-1.828,1.556-2.742,2.335c-0.228,0.194-0.483,0.399-0.783,0.402
			c-0.684,0.007-0.901-0.923-0.846-1.605c0.204-2.544,1.125-5.026,2.629-7.088c0.909-1.246,2.069-2.367,3.514-2.906
			c1.505-0.561,3.175-0.445,4.757-0.171c1.81,0.314,3.587,0.823,5.288,1.517c2.559,1.043,4.691,2.041,7.441,1.766
			c12.397-1.239,21.638-2.162,34.035-3.401C291.026,246.773,297.971,230.576,300.392,222.467z"/>
		<g id="XMLID_1285_">
			<polygon id="XMLID_1465_" style="fill:#B8B8DD;" points="210.319,219.247 224.599,261.069 167.804,261.069 155.752,219.247 			
				"/>
			<rect id="XMLID_1464_" x="219.07" y="256.837" style="fill:#B8B8DD;" width="33.113" height="4.231"/>
		</g>
	</g>
	<g id="XMLID_6_">
		<rect id="XMLID_1469_" x="121.025" y="261.069" style="fill:#B28978;" width="244.845" height="6.79"/>
		<rect id="XMLID_60_" x="344.281" y="267.859" style="fill:#EDB9A4;" width="6.517" height="142.783"/>
		<rect id="XMLID_63_" x="134.121" y="267.859" style="fill:#EDB9A4;" width="6.517" height="142.783"/>
	</g>
	<g id="XMLID_2_">
		<circle id="XMLID_1100_" style="fill:#FFDC75;" cx="360.226" cy="86.72" r="11.336"/>
		
			<line id="XMLID_1112_" style="fill:none;stroke:#4B5486;stroke-width:0.8968;stroke-miterlimit:10;" x1="358.719" y1="0" x2="358.719" y2="63.163"/>
		<path id="XMLID_1116_" style="fill:#4B5486;" d="M320.973,89.563c0-20.846,16.899-37.745,37.746-37.745
			c20.846,0,37.745,16.899,37.745,37.745H320.973z"/>
	</g>
	<g id="XMLID_4_">
		<g id="XMLID_1263_">
			<path id="XMLID_1164_" style="fill:#626DB1;" d="M398.945,342.949c-4.355-3.083-11.952-7.991-15.149-12.263
				c-1.411-1.885-2.722-3.946-3.098-6.271c-0.375-2.325,0.394-4.972,2.389-6.223c0.693-0.434,6.732-0.813,6.959-5.859
				c0.119-2.654-4.793-6.484-6.805-8.278c-1.562-1.393-3.002-2.922-4.025-4.748c-1.325-2.367-2.592-5.429-1.915-8.267
				c0.487-2.042,2.199-3.893,4.296-4.004c1.396-0.075,6.913,3.171,8.585,0.72c0.486-0.712,0.737-1.556,0.819-2.414
				c0.192-2.014,0.62-6.345,0.902-8.114c0.625-3.911,2.321-7.648,4.872-10.68c1.21-1.438,2.735-2.629,4.542-3.147
				c6.195-1.775,10.111,4.867,10.041,10.5c-0.068,5.54-2.53,10.872-1.967,16.461c0.118,1.177,0.699,2.305,1.691,2.949
				c2.405,1.562,4.632-0.851,7.087-1.177c2.177-0.289,4.318,1.198,5.303,3.161c0.985,1.963,0.992,4.284,0.598,6.444
				c-0.715,3.922-2.711,7.6-5.609,10.338c-0.948,0.896-2.006,1.712-2.691,2.823c-0.685,1.11-0.91,2.637-0.126,3.68
				c0.95,1.264,2.832,1.264,4.203,2.053c2.148,1.237,2.625,4.314,1.651,6.593c-0.974,2.28-3.01,3.911-5.048,5.323
				C411.929,335.681,404.112,341.062,398.945,342.949"/>
			<g id="XMLID_1117_">
				<path id="XMLID_1280_" style="fill:#A0ABE4;" d="M402.376,274.202c0,0-0.212,1.386-0.584,3.811
					c-0.208,1.211-0.36,2.687-0.555,4.381c-0.211,1.69-0.381,3.608-0.562,5.7c-0.206,2.09-0.337,4.363-0.506,6.763
					c-0.173,2.401-0.263,4.939-0.371,7.562c-0.066,2.626-0.176,5.337-0.208,8.095c-0.057,2.757-0.09,5.559-0.103,8.36
					c-0.004,2.802-0.009,5.604-0.013,8.362c0.01,2.758,0.019,5.473,0.029,8.1c0.014,2.627,0.027,5.167,0.04,7.575
					c-0.009,2.409-0.018,4.687-0.026,6.789c0.007,2.103-0.044,4.031-0.075,5.74c-0.035,1.709-0.059,3.199-0.115,4.427
					c-0.09,2.455-0.173,3.857-0.173,3.857c-0.011,0.188-0.173,0.332-0.361,0.321c-0.175-0.01-0.311-0.153-0.321-0.323
					c0,0-0.082-1.402-0.169-3.853c-0.06-1.226-0.099-2.715-0.146-4.423c-0.047-1.708-0.121-3.635-0.136-5.738
					c-0.027-2.103-0.056-4.382-0.087-6.792c0.007-2.411,0.014-4.953,0.021-7.583c0.002-2.63,0.042-5.348,0.095-8.11
					c0.07-2.762,0.142-5.567,0.213-8.372c0.08-2.805,0.181-5.61,0.304-8.37c0.098-2.76,0.274-5.475,0.402-8.102
					c0.17-2.626,0.335-5.164,0.491-7.571c0.183-2.405,0.328-4.681,0.547-6.776c0.193-2.096,0.374-4.018,0.597-5.718
					c0.214-1.699,0.355-3.189,0.549-4.399c0.35-2.428,0.551-3.816,0.551-3.816c0.027-0.186,0.2-0.316,0.386-0.289
					c0.186,0.027,0.316,0.2,0.289,0.386L402.376,274.202z"/>
			</g>
			<g id="XMLID_1167_">
				<path id="XMLID_1294_" style="fill:#A0ABE4;" d="M398.783,305.412c0,0-1.098-0.67-2.745-1.674
					c-0.827-0.5-1.791-1.083-2.824-1.708c-1.03-0.635-2.129-1.312-3.228-1.99c-1.085-0.701-2.172-1.406-3.143-2.131
					c-0.969-0.727-1.859-1.428-2.564-2.096c-1.436-1.307-2.18-2.412-2.18-2.412c-0.11-0.16-0.069-0.379,0.091-0.489
					c0.11-0.075,0.25-0.078,0.36-0.022c0,0,1.171,0.605,2.695,1.756c1.541,1.133,3.47,2.79,5.451,4.405
					c0.986,0.813,1.996,1.598,2.968,2.3c0.963,0.715,1.905,1.319,2.708,1.845c1.618,1.025,2.755,1.626,2.755,1.626
					c0.167,0.088,0.23,0.295,0.142,0.461c-0.088,0.167-0.295,0.23-0.461,0.142c-0.006-0.003-0.012-0.006-0.017-0.01L398.783,305.412
					z"/>
			</g>
			<g id="XMLID_1183_">
				<path id="XMLID_1298_" style="fill:#A0ABE4;" d="M398.612,332.771c0,0-0.28-0.054-0.77-0.149
					c-0.481-0.092-1.216-0.246-2.046-0.486c-0.421-0.109-0.874-0.241-1.344-0.41c-0.476-0.152-0.961-0.357-1.476-0.542
					c-0.499-0.218-1.028-0.426-1.536-0.692c-0.525-0.237-1.039-0.516-1.555-0.796c-1.01-0.59-2.002-1.225-2.855-1.915
					c-0.849-0.692-1.609-1.376-2.183-2.033c-1.178-1.288-1.699-2.366-1.699-2.366c-0.086-0.177-0.011-0.39,0.166-0.475
					c0.11-0.053,0.24-0.041,0.338,0.015c0,0,0.257,0.15,0.66,0.451c0.407,0.297,0.962,0.741,1.598,1.294
					c1.276,1.101,2.862,2.66,4.642,4.01c0.448,0.331,0.898,0.664,1.363,0.958c0.459,0.306,0.943,0.549,1.401,0.807
					c0.932,0.483,1.854,0.835,2.658,1.082c0.401,0.133,0.775,0.21,1.105,0.29c0.326,0.087,0.622,0.137,0.872,0.168
					c0.494,0.073,0.776,0.115,0.776,0.115c0.186,0.028,0.315,0.201,0.287,0.387c-0.028,0.186-0.201,0.315-0.387,0.287
					C398.622,332.773,398.617,332.772,398.612,332.771z"/>
			</g>
			<g id="XMLID_1261_">
				<path id="XMLID_1283_" style="fill:#A0ABE4;" d="M398.392,317.302c0,0,0.349-0.186,0.958-0.513
					c0.615-0.322,1.458-0.815,2.467-1.431c0.999-0.629,2.16-1.373,3.35-2.246c1.196-0.864,2.434-1.836,3.635-2.849
					c2.408-2.021,4.699-4.149,6.485-5.677c1.773-1.54,3.092-2.453,3.092-2.453c0.158-0.109,0.374-0.07,0.484,0.088
					c0.082,0.119,0.08,0.272,0.006,0.387c0,0-0.219,0.339-0.645,0.897c-0.416,0.567-1.06,1.334-1.9,2.187
					c-0.826,0.868-1.878,1.789-3.028,2.746c-1.155,0.951-2.453,1.883-3.758,2.796c-2.648,1.779-5.334,3.47-7.391,4.669
					c-2.05,1.219-3.424,1.996-3.424,1.996c-0.163,0.094-0.372,0.038-0.466-0.125c-0.094-0.163-0.038-0.372,0.125-0.466
					C398.385,317.306,398.39,317.303,398.392,317.302z"/>
			</g>
			<g id="XMLID_1262_">
				<path id="XMLID_1284_" style="fill:#A0ABE4;" d="M398.3,335.425c0,0,0.357-0.079,0.982-0.218
					c0.633-0.121,1.502-0.375,2.547-0.669c1.032-0.348,2.246-0.731,3.478-1.303c0.622-0.271,1.253-0.576,1.882-0.905
					c0.625-0.338,1.25-0.698,1.856-1.083c0.61-0.38,1.206-0.778,1.783-1.184c0.566-0.423,1.133-0.819,1.661-1.236
					c1.072-0.808,2.031-1.619,2.886-2.286c0.848-0.673,1.577-1.221,2.106-1.588c0.524-0.372,0.848-0.561,0.848-0.561
					c0.167-0.098,0.382-0.042,0.48,0.124c0.069,0.117,0.061,0.26-0.008,0.368c0,0-0.817,1.264-2.431,2.799
					c-0.798,0.776-1.806,1.607-2.954,2.41c-0.567,0.41-1.184,0.793-1.817,1.167c-0.64,0.364-1.291,0.73-1.965,1.051
					c-0.669,0.329-1.352,0.628-2.029,0.904c-0.673,0.285-1.341,0.549-1.997,0.776c-0.648,0.246-1.295,0.426-1.89,0.643
					c-0.607,0.182-1.18,0.355-1.71,0.514c-1.066,0.299-1.959,0.535-2.577,0.689c-0.62,0.16-0.974,0.251-0.974,0.251
					c-0.182,0.047-0.368-0.063-0.416-0.245c-0.047-0.182,0.063-0.368,0.245-0.415C398.291,335.427,398.296,335.425,398.3,335.425z"
					/>
			</g>
		</g>
		<path id="XMLID_84_" style="fill:#D6DAF3;" d="M414.924,410.642h-29.9c-2.973,0-5.384-2.41-5.384-5.384v-52.863
			c0-2.973,2.41-5.384,5.384-5.384h29.9c2.973,0,5.384,2.41,5.384,5.384v52.863C420.308,408.231,417.898,410.642,414.924,410.642z"
			/>
		<rect id="XMLID_1037_" x="377.764" y="345.257" style="fill:#B8B8DD;" width="45.244" height="8.05"/>
		<rect id="XMLID_1264_" x="379.641" y="353.307" style="opacity:0.42;fill:#B8B8DD;" width="40.667" height="2.776"/>
	</g>
</g>
</svg>
