<svg width="41" height="41" viewBox="0 0 41 41" fill="none" xmlns="http://www.w3.org/2000/svg">
<path d="M20.25 18.05C19.04 18.05 18.05 19.04 18.05 20.25C18.05 21.46 19.04 22.45 20.25 22.45C20.8335 22.45 21.3931 22.2182 21.8056 21.8056C22.2182 21.3931 22.45 20.8335 22.45 20.25C22.45 19.6665 22.2182 19.1069 21.8056 18.6944C21.3931 18.2818 20.8335 18.05 20.25 18.05ZM20.25 0.25C9.2 0.25 0.25 9.2 0.25 20.25C0.25 31.29 9.2 40.25 20.25 40.25C31.3 40.25 40.25 31.29 40.25 20.25C40.25 9.2 31.3 0.25 20.25 0.25ZM24.63 24.63L8.25 32.25L15.87 15.87L32.25 8.25L24.63 24.63Z" fill="white"/>
</svg>
