<svg width="1187" height="867" viewBox="0 0 1187 867" fill="none" xmlns="http://www.w3.org/2000/svg">
<mask id="mask0_3_259" style="mask-type:luminance" maskUnits="userSpaceOnUse" x="-3" y="79" width="1190" height="792">
<path d="M1186.5 79.0802H-2.0874V870.646H1186.5V79.0802Z" fill="white"/>
</mask>
<g mask="url(#mask0_3_259)">
<path d="M-33.371 276.37C31.1772 275.8 101.938 277.367 150.939 319.352C174.014 339.125 190.876 366.988 218.34 380.018C242.92 391.669 271.541 389.263 298.403 393.617C337.12 399.87 373.205 421.132 397.436 451.939C421.668 482.747 433.791 522.8 432.032 566.558C439.512 685.229 446.977 803.917 454.457 922.588L-3.41858 897.005L-33.371 276.37Z" fill="#3C3B7B"/>
<path d="M381.89 584.479C378.419 534.974 385.646 485.438 389.687 435.981C393.744 386.524 394.425 335.595 378.482 288.592C378.482 288.592 386.882 287.104 387.785 288.956C399.291 317.706 402.92 349.036 403.237 379.986C403.554 410.936 400.685 441.839 399.687 472.773C398.371 513.65 400.352 554.605 404.473 595.292C396.866 590.115 388.482 586.22 381.874 584.463L381.89 584.479Z" fill="#47468A"/>
<path d="M400.226 383.231L463.902 296.808C463.902 296.808 472.095 298.091 471.398 301.336C449.766 335.627 422.872 372.213 397.753 404.05C398.72 396.64 399.671 389.231 400.21 383.247L400.226 383.231Z" fill="#47468A"/>
<path d="M395.059 455.85C395.059 455.85 389.243 504.404 390.669 546.341H396.628L395.059 455.85Z" fill="#51509E"/>
<path d="M391.493 330.276C391.493 330.276 397.88 375.996 395.059 409.812C395.059 409.812 400.574 384.545 395.772 328.708L391.493 330.276Z" fill="#51509E"/>
<path d="M445.059 328.075L421.699 358.772L435.962 344.967L445.059 328.075Z" fill="#51509E"/>
<path d="M403.062 388.677V393.997L420.764 371.532L403.062 388.677Z" fill="#51509E"/>
<path d="M420.051 320.698C406.739 328.882 393.237 337.162 378.26 341.674C363.3 346.186 346.454 346.614 332.587 339.394C318.72 332.175 308.926 316.154 313.966 299.325C295.979 302.824 277.12 303.378 259.497 298.36C241.874 293.341 225.551 282.37 216.343 266.539C207.326 251.04 205.709 231.789 210.369 214.47C215.012 197.15 225.567 181.73 238.863 169.699C258.863 151.603 285.376 140.822 312.349 139.841C339.322 138.843 366.549 147.646 394.71 165.788C420.194 137.229 464.996 127.967 499.718 144.099C511.255 149.45 521.858 157.556 528.165 168.575C534.472 179.593 535.93 193.81 527.373 208.929C554.06 208.849 580.748 223.731 592.983 247.399C605.233 271.082 601.334 302.618 582.333 321.331C567.182 336.26 545.075 341.927 523.823 343.099C490.13 344.951 455.947 336.814 420.035 320.714L420.051 320.698Z" fill="#535CBD"/>
<mask id="mask1_3_259" style="mask-type:luminance" maskUnits="userSpaceOnUse" x="207" y="136" width="394" height="209">
<path d="M420.051 320.698C406.739 328.882 393.237 337.162 378.26 341.674C363.3 346.186 346.454 346.614 332.587 339.394C318.72 332.175 308.926 316.154 313.966 299.325C295.979 302.824 277.12 303.378 259.497 298.36C241.874 293.341 225.551 282.37 216.343 266.539C207.326 251.04 205.709 231.789 210.369 214.47C215.012 197.15 225.567 181.73 238.863 169.699C258.863 151.603 285.376 140.822 312.349 139.841C339.322 138.843 366.549 147.646 394.71 165.788C420.194 137.229 464.996 127.967 499.718 144.099C511.255 149.45 521.858 157.556 528.165 168.575C534.472 179.593 535.93 193.81 527.373 208.929C554.06 208.849 580.748 223.731 592.983 247.399C605.233 271.082 601.334 302.618 582.333 321.331C567.182 336.26 545.075 341.927 523.823 343.099C490.13 344.951 455.947 336.814 420.035 320.714L420.051 320.698Z" fill="white"/>
</mask>
<g mask="url(#mask1_3_259)">
<path d="M502.27 132.669C502.27 132.669 451.113 242.222 426.406 336.846" stroke="#2E2854" stroke-width="0.75" stroke-linecap="round" stroke-linejoin="round"/>
<path d="M448.355 119.529C448.355 119.529 457.706 196.327 463.791 224.111" stroke="#2E2854" stroke-width="0.75" stroke-linecap="round" stroke-linejoin="round"/>
<path d="M546.152 200.95C546.152 200.95 489.243 270.417 463.791 339.964" stroke="#2E2854" stroke-width="0.75" stroke-linecap="round" stroke-linejoin="round"/>
<path d="M490.986 353.136C490.986 353.136 540.384 286.122 600.019 246.037" stroke="#2E2854" stroke-width="0.75" stroke-linecap="round" stroke-linejoin="round"/>
<path d="M568.102 212.839C568.102 212.839 546.945 260.745 537.309 299.579" stroke="#2E2854" stroke-width="0.75" stroke-linecap="round" stroke-linejoin="round"/>
<path d="M299.56 132.669C299.56 132.669 351.383 290.08 358.91 363.141" stroke="#2E2854" stroke-width="0.75" stroke-linecap="round" stroke-linejoin="round"/>
<path d="M344.283 136.2C344.283 136.2 336.755 190.422 329.243 230.443" stroke="#2E2854" stroke-width="0.75" stroke-linecap="round" stroke-linejoin="round"/>
<path d="M378.498 146.031C378.498 146.031 353.443 173.118 336.802 186.132" stroke="#2E2854" stroke-width="0.75" stroke-linecap="round" stroke-linejoin="round"/>
<path d="M232.635 162.733C232.635 162.733 279.909 254.175 299.56 321.394" stroke="#2E2854" stroke-width="0.75" stroke-linecap="round" stroke-linejoin="round"/>
<path d="M207.817 200.95C207.817 200.95 231.51 217.018 269.925 242.079" stroke="#2E2854" stroke-width="0.75" stroke-linecap="round" stroke-linejoin="round"/>
<path d="M404.489 144.369C404.489 144.369 392.761 288.006 384.821 353.136" stroke="#2E2854" stroke-width="0.75" stroke-linecap="round" stroke-linejoin="round"/>
</g>
<g style="mix-blend-mode:soft-light" opacity="0.15">
<path d="M546.628 339.869C560.019 336.656 572.618 330.909 582.333 321.331C601.335 302.618 605.233 271.082 592.983 247.399C580.732 223.715 554.045 208.849 527.357 208.929C535.915 193.81 534.457 179.609 528.149 168.575C521.842 157.54 511.24 149.45 499.702 144.099C464.964 127.967 420.178 137.229 394.695 165.788C366.533 147.646 339.307 138.843 312.334 139.841C285.361 140.838 258.863 151.603 238.847 169.699C234.378 173.736 230.226 178.168 226.502 182.918C254.41 161.387 293.522 154.184 326.85 166.216C341.684 171.567 355.63 180.369 371.351 181.588C405.55 184.232 435.329 150.495 469.322 155.118C483.458 157.034 496.438 166.073 503.141 178.643C509.845 191.213 510.099 207.029 502.951 223.968C512 219.995 523.458 222.338 530.209 229.541C536.961 236.76 538.545 248.317 534.98 258.734C547.484 262.438 557.119 273.489 560.701 286.011C564.266 298.55 562.222 312.275 556.675 324.07C554.013 329.737 550.558 334.993 546.612 339.869H546.628Z" fill="white"/>
</g>
<path d="M219.497 479.58C220.4 473.612 220.59 470.857 221.652 468.609C222.698 466.361 224.521 464.556 226.454 463.021C237.373 454.329 253.665 453.11 267.31 461.96C267.849 460.092 267.151 458.097 266.407 456.292C265.662 454.488 264.853 452.588 265.155 450.656C265.456 448.725 267.437 446.936 269.275 447.617C270.432 448.044 271.097 449.247 271.589 450.387C273.047 453.759 273.982 457.369 274.315 461.042C279.053 451.274 289.037 444.245 299.83 443.073C310.638 441.902 321.89 446.619 328.625 455.153C335.36 463.686 337.31 475.717 334.299 486.989C335.63 484.852 337.246 482.889 339.101 481.163C339.845 480.467 340.939 479.786 341.779 480.34C342.476 480.799 342.508 481.812 342.381 482.636C342.017 485.28 341.05 487.844 339.56 490.061C341.43 488.003 343.649 486.261 346.105 484.947C347.151 484.377 348.704 484.013 349.354 485.026C349.687 485.549 349.576 486.245 349.433 486.863C348.847 489.348 347.753 491.723 345.804 494.921C354.901 487.844 364.6 481.417 375.297 477.126C385.978 472.836 397.737 470.746 409.132 472.504C420.511 474.261 431.477 480.103 438.213 489.427C444.964 498.752 446.993 511.639 440.685 522.8C448.482 516.705 458.276 513.206 468.181 512.968C474.33 512.81 481.224 514.362 484.536 519.523C488.181 525.222 485.994 532.71 483.696 539.074C385.883 548.367 294.093 527.628 219.497 479.58Z" fill="#6069CC"/>
<mask id="mask2_3_259" style="mask-type:luminance" maskUnits="userSpaceOnUse" x="219" y="442" width="268" height="100">
<path d="M219.497 479.58C220.4 473.612 220.59 470.857 221.652 468.609C222.698 466.361 224.521 464.556 226.454 463.021C237.373 454.329 253.665 453.11 267.31 461.96C267.849 460.092 267.151 458.097 266.407 456.292C265.662 454.488 264.853 452.588 265.155 450.656C265.456 448.725 267.437 446.936 269.275 447.617C270.432 448.044 271.097 449.247 271.589 450.387C273.047 453.759 273.982 457.369 274.315 461.042C279.053 451.274 289.037 444.245 299.83 443.073C310.638 441.902 321.89 446.619 328.625 455.153C335.36 463.686 337.31 475.717 334.299 486.989C335.63 484.852 337.246 482.889 339.101 481.163C339.845 480.467 340.939 479.786 341.779 480.34C342.476 480.799 342.508 481.812 342.381 482.636C342.017 485.28 341.05 487.844 339.56 490.061C341.43 488.003 343.649 486.261 346.105 484.947C347.151 484.377 348.704 484.013 349.354 485.026C349.687 485.549 349.576 486.245 349.433 486.863C348.847 489.348 347.753 491.723 345.804 494.921C354.901 487.844 364.6 481.417 375.297 477.126C385.978 472.836 397.737 470.746 409.132 472.504C420.511 474.261 431.477 480.103 438.213 489.427C444.964 498.752 446.993 511.639 440.685 522.8C448.482 516.705 458.276 513.206 468.181 512.968C474.33 512.81 481.224 514.362 484.536 519.523C488.181 525.222 485.994 532.71 483.696 539.074C385.883 548.367 294.093 527.628 219.497 479.58Z" fill="white"/>
</mask>
<g mask="url(#mask2_3_259)">
<path d="M330.337 439.559C330.337 439.559 310.479 503.644 304.425 528.911" stroke="#2E2854" stroke-width="0.75" stroke-linecap="round" stroke-linejoin="round"/>
<path d="M318.831 528.911C318.831 528.911 345.994 488.826 356.454 469.211" stroke="#2E2854" stroke-width="0.75" stroke-linecap="round" stroke-linejoin="round"/>
<path d="M335.551 459.396C335.551 459.396 328.498 495.333 329.513 512.858" stroke="#2E2854" stroke-width="0.75" stroke-linecap="round" stroke-linejoin="round"/>
<path d="M310.368 431.944C310.368 431.944 301.272 496.14 295.63 525.887" stroke="#2E2854" stroke-width="0.75" stroke-linecap="round" stroke-linejoin="round"/>
<path d="M286.438 441.649C286.438 441.649 294.235 470.193 301.494 491.312" stroke="#2E2854" stroke-width="0.75" stroke-linecap="round" stroke-linejoin="round"/>
<path d="M276.628 447.696C276.628 447.696 286.929 460.219 294.425 469.195" stroke="#2E2854" stroke-width="0.75" stroke-linecap="round" stroke-linejoin="round"/>
<path d="M248.197 450.625C248.197 450.625 246.882 478.298 244.727 499.053" stroke="#2E2854" stroke-width="0.75" stroke-linecap="round" stroke-linejoin="round"/>
<path d="M259.069 453.554C259.069 453.554 251.573 464.794 246.961 471.918" stroke="#2E2854" stroke-width="0.75" stroke-linecap="round" stroke-linejoin="round"/>
<path d="M379.449 464.398C379.449 464.398 387.595 504.689 393.031 544.774" stroke="#2E2854" stroke-width="0.75" stroke-linecap="round" stroke-linejoin="round"/>
<path d="M403.268 462.72C403.268 462.72 394.188 496.314 387.864 510.737" stroke="#2E2854" stroke-width="0.75" stroke-linecap="round" stroke-linejoin="round"/>
<path d="M436.073 473.375C436.073 473.375 415.17 528.484 414.964 548.526" stroke="#2E2854" stroke-width="0.75" stroke-linecap="round" stroke-linejoin="round"/>
<path d="M467.626 505.528C467.626 505.528 467.214 529.323 464.695 544.774" stroke="#2E2854" stroke-width="0.75" stroke-linecap="round" stroke-linejoin="round"/>
<path d="M457.468 510.958C457.468 510.958 463.506 520.821 466.786 524.652" stroke="#2E2854" stroke-width="0.75" stroke-linecap="round" stroke-linejoin="round"/>
</g>
<g style="mix-blend-mode:soft-light" opacity="0.15">
<path d="M468.181 512.953C458.276 513.191 448.498 516.689 440.685 522.784C446.993 511.623 444.964 498.737 438.213 489.412C431.462 480.087 420.511 474.23 409.132 472.488C397.753 470.731 385.994 472.821 375.297 477.111C364.615 481.401 354.901 487.829 345.804 494.905C347.769 491.708 348.847 489.333 349.433 486.847C349.576 486.23 349.687 485.549 349.354 485.011C348.72 483.998 347.167 484.378 346.105 484.932C343.649 486.246 341.43 487.971 339.56 490.045C341.034 487.813 342.017 485.264 342.381 482.62C342.492 481.781 342.476 480.784 341.779 480.325C340.939 479.771 339.829 480.451 339.1 481.148C337.246 482.874 335.63 484.837 334.299 486.974C337.31 475.718 335.36 463.67 328.625 455.137C321.89 446.604 310.638 441.886 299.83 443.058C289.021 444.229 279.037 451.259 274.315 461.026C273.982 457.369 273.063 453.744 271.589 450.372C271.097 449.232 270.432 448.029 269.275 447.601C267.437 446.921 265.471 448.726 265.155 450.641C264.853 452.573 265.662 454.472 266.407 456.277C267.151 458.082 267.849 460.077 267.31 461.945C253.665 453.111 237.357 454.33 226.454 463.005C224.521 464.541 222.698 466.346 221.652 468.594C221.288 469.37 221.034 470.209 220.812 471.222C235.281 460.995 255.741 459.76 272.413 468.942C273.348 466.108 277.405 464.905 282.017 467.106C282.746 457.195 292.27 449.105 302.207 448.9C312.143 448.694 321.525 455.596 325.392 464.747C329.259 473.897 327.959 484.773 323.982 494.81C325.25 493.908 326.533 492.974 328.023 492.515C329.497 492.04 331.24 492.103 332.476 493.037C333.712 493.971 334.204 495.934 334.093 498.135C335.772 496.473 338.403 495.855 340.654 496.584C342.904 497.312 344.663 499.37 345.662 502.045C354.045 494.019 363.11 486.452 373.633 481.56C384.156 476.668 396.39 474.61 407.531 477.887C417.183 480.721 425.582 487.576 430.289 496.441C435.012 505.307 435.994 516.088 433.173 526.695C435.788 524.542 440.019 524.684 443.363 527.106C446.945 524.668 450.558 522.214 454.568 520.536C458.561 518.858 463.031 518.003 467.278 518.906C471.525 519.808 475.487 522.642 476.992 526.711C478.546 530.89 477.373 535.497 475.836 539.724C478.45 539.518 481.065 539.296 483.696 539.043C485.994 532.679 488.181 525.191 484.536 519.491C481.224 514.315 474.33 512.779 468.181 512.937V512.953Z" fill="white"/>
</g>
<path d="M826.564 634.79C829.718 630.342 831.001 624.516 829.638 619.244C828.275 613.956 824.203 609.381 819.004 607.719C813.806 606.057 807.642 607.545 804.012 611.613C804.456 605.582 804.963 600.262 805.011 594.943C805.011 593.376 804.805 591.492 803.394 590.795C802.364 590.289 801.065 590.7 800.241 591.492C799.416 592.283 798.957 593.376 798.545 594.452C796.421 600.152 795.328 606.215 795.296 612.294C787.61 598.616 774.551 588.595 759.844 585.27C745.138 581.93 729.02 585.333 716.929 594.341C721.303 589.339 724.646 585.84 726.707 581.566C728.767 577.291 729.369 572.035 727.087 567.871C725.217 564.452 721.635 562.188 717.864 561.159C714.092 560.13 710.114 560.193 706.215 560.462C690.162 561.571 674.33 566.035 660.082 573.523C664.361 556.916 661.334 538.932 650.764 526.9C640.193 514.884 622.38 509.581 607.103 514.393C591.826 519.19 580.146 534.087 579.639 550.077C579.179 547.227 578.656 544.204 576.77 542.019C574.884 539.834 571.129 538.979 569.116 541.053C567.468 542.747 567.674 545.454 568.149 547.766C569.322 553.417 571.493 558.879 573.522 566.779C606.041 595.735 649.401 609.571 692.349 616.854C735.312 624.12 779.131 625.608 826.548 634.79H826.564Z" fill="#6069CC"/>
<mask id="mask3_3_259" style="mask-type:luminance" maskUnits="userSpaceOnUse" x="567" y="512" width="264" height="123">
<path d="M826.564 634.79C829.718 630.342 831.001 624.516 829.638 619.244C828.275 613.956 824.203 609.381 819.004 607.719C813.806 606.057 807.642 607.545 804.012 611.613C804.456 605.582 804.963 600.262 805.011 594.943C805.011 593.376 804.805 591.492 803.394 590.795C802.364 590.289 801.065 590.7 800.241 591.492C799.416 592.283 798.957 593.376 798.545 594.452C796.421 600.152 795.328 606.215 795.296 612.294C787.61 598.616 774.551 588.595 759.844 585.27C745.138 581.93 729.02 585.333 716.929 594.341C721.303 589.339 724.646 585.84 726.707 581.566C728.767 577.291 729.369 572.035 727.087 567.871C725.217 564.452 721.635 562.188 717.864 561.159C714.092 560.13 710.114 560.193 706.215 560.462C690.162 561.571 674.33 566.035 660.082 573.523C664.361 556.916 661.334 538.932 650.764 526.9C640.193 514.884 622.38 509.581 607.103 514.393C591.826 519.19 580.146 534.087 579.639 550.077C579.179 547.227 578.656 544.204 576.77 542.019C574.884 539.834 571.129 538.979 569.116 541.053C567.468 542.747 567.674 545.454 568.149 547.766C569.322 553.417 571.493 558.879 573.522 566.779C606.041 595.735 649.401 609.571 692.349 616.854C735.312 624.12 779.131 625.608 826.548 634.79H826.564Z" fill="white"/>
</mask>
<g mask="url(#mask3_3_259)">
<path d="M625.724 500.209C625.724 500.209 618.878 569.107 614.155 605.107" stroke="#2E2854" stroke-width="0.75" stroke-linecap="round" stroke-linejoin="round"/>
<path d="M651.746 512.621C651.746 512.621 630.257 579.445 624.552 610.284" stroke="#2E2854" stroke-width="0.75" stroke-linecap="round" stroke-linejoin="round"/>
<path d="M701.271 545.296C701.271 545.296 681.208 588.199 662.713 617.012" stroke="#2E2854" stroke-width="0.75" stroke-linecap="round" stroke-linejoin="round"/>
<path d="M734.821 558.452C734.821 558.452 701.128 577.307 681.303 584.938" stroke="#2E2854" stroke-width="0.75" stroke-linecap="round" stroke-linejoin="round"/>
<path d="M761.778 578.811C761.778 578.811 760.811 611.234 759.591 632.052" stroke="#2E2854" stroke-width="0.75" stroke-linecap="round" stroke-linejoin="round"/>
<path d="M746.104 578.811L760.986 601.561" stroke="#2E2854" stroke-width="0.75" stroke-linecap="round" stroke-linejoin="round"/>
<path d="M760.716 608.558C760.716 608.558 773.585 594.469 778.085 587.582" stroke="#2E2854" stroke-width="0.75" stroke-linecap="round" stroke-linejoin="round"/>
<path d="M827.927 602.4C827.927 602.4 816.231 620.559 807.451 633.081" stroke="#2E2854" stroke-width="0.75" stroke-linecap="round" stroke-linejoin="round"/>
</g>
<g style="mix-blend-mode:soft-light" opacity="0.15">
<path d="M819.004 607.704C813.806 606.041 807.641 607.529 804.012 611.598C804.456 605.566 804.963 600.247 805.011 594.928C805.011 593.36 804.805 591.476 803.394 590.78C802.364 590.273 801.065 590.685 800.241 591.476C799.416 592.268 798.957 593.36 798.545 594.437C796.421 600.136 795.328 606.2 795.296 612.279C787.61 598.6 774.551 588.579 759.844 585.255C745.138 581.914 729.02 585.318 716.929 594.326C721.303 589.323 724.646 585.825 726.707 581.55C728.767 577.276 729.369 572.02 727.087 567.856C725.217 564.437 721.635 562.173 717.864 561.144C714.092 560.115 710.114 560.178 706.215 560.447C690.162 561.555 674.33 566.02 660.082 573.508C664.361 556.901 661.334 538.916 650.764 526.885C640.193 514.869 622.38 509.565 607.103 514.378C591.826 519.175 580.146 534.072 579.639 550.062C579.179 547.212 578.656 544.188 576.77 542.004C574.884 539.819 571.129 538.964 569.116 541.038C567.468 542.732 567.674 545.439 568.149 547.75C568.989 551.819 570.352 555.793 571.81 560.653C571.81 558.658 571.873 556.648 572 554.653C572.111 552.959 572.396 551.059 573.791 550.109C575.265 549.112 577.388 549.729 578.625 551.012C579.861 552.294 580.431 554.051 580.97 555.745C585.439 545.344 590.605 535.164 598.941 528.072C607.262 520.98 619.147 517.449 629.512 520.948C640.384 524.605 647.8 535.339 649.987 546.595C652.174 557.835 649.845 569.518 645.487 582.326C663.41 574.664 681.588 566.938 700.906 564.247C705.201 563.645 710.003 563.439 713.379 566.146C716.627 568.758 717.562 573.46 716.754 577.545C715.946 581.629 713.696 585.271 711.493 588.801C709.29 592.347 707.055 595.988 707.927 601.893C720.764 592.759 737.309 588.991 752.84 591.682C768.371 594.358 782.697 603.445 792.634 616.347C796.152 613.909 801.461 614.558 804.044 618.026C807.055 615.065 810.97 612.77 815.201 612.659C819.416 612.548 823.854 615.065 825.074 619.102C826.057 622.332 824.916 625.83 823.252 628.759C822.317 630.421 821.223 631.989 820.193 633.604C822.332 633.983 824.456 634.363 826.611 634.791C829.765 630.342 831.049 624.516 829.686 619.245C828.323 613.957 824.25 609.382 819.052 607.719L819.004 607.704Z" fill="white"/>
</g>
<path d="M-21.7228 434.541C38.9585 414.182 106.866 416.097 166.296 439.828C173.459 433.575 182.207 430.852 185.139 423.728C187.548 417.87 184.79 410.746 179.751 406.915C174.711 403.084 167.928 402.134 161.652 402.973C155.377 403.828 149.45 406.282 143.602 408.736C148.261 400.804 153.126 395.706 156.565 389.659C160.004 383.611 161.906 376.392 160.305 369.601C158.356 361.273 151.351 354.814 143.427 351.553C135.519 348.292 126.755 347.817 118.198 347.943C109.64 348.07 101.05 348.767 92.5559 347.722C98.4354 344.476 101.225 342.592 104.014 340.724C105.361 339.822 106.898 338.318 106.217 336.846C105.646 335.611 103.95 335.5 102.603 335.627C98.9267 335.975 95.2817 336.83 91.8269 338.144C100.749 332.381 109.37 326.65 115.266 318.545C121.161 310.439 123.998 299.658 120.828 290.143C117.817 281.088 109.687 274.28 100.559 271.478C91.4307 268.676 81.4782 269.531 72.3657 272.396C75.9632 268.312 79.2278 265.098 82.2548 261.679C83.2056 260.602 84.1724 259.272 83.8237 257.895C83.5385 256.723 82.3182 255.963 81.1137 255.837C79.9093 255.71 78.7207 256.09 77.5797 256.502C72.2231 258.481 67.2469 261.504 63.0314 265.351C65.6304 259.209 68.4355 253.209 70.4164 246.94C70.8919 245.451 71.1138 243.425 69.7191 242.713C68.4196 242.032 66.9299 243.172 65.9474 244.264C61.3198 249.409 57.7065 255.441 55.3452 261.948C52.1756 240.433 47.3262 217.604 34.0774 199.81C20.8444 182.015 -1.92888 170.332 -22.5469 172.374C-28.5691 255.489 -28.4106 339.046 -21.7545 434.556L-21.7228 434.541Z" fill="#B9AEE8"/>
<mask id="mask4_3_259" style="mask-type:luminance" maskUnits="userSpaceOnUse" x="-27" y="172" width="214" height="268">
<path d="M-21.7228 434.541C38.9585 414.182 106.866 416.097 166.296 439.828C173.459 433.575 182.207 430.852 185.139 423.728C187.548 417.87 184.79 410.746 179.751 406.915C174.711 403.084 167.928 402.134 161.652 402.973C155.377 403.828 149.45 406.282 143.602 408.736C148.261 400.804 153.126 395.706 156.565 389.659C160.004 383.611 161.906 376.392 160.305 369.601C158.356 361.273 151.351 354.814 143.427 351.553C135.519 348.292 126.755 347.817 118.198 347.943C109.64 348.07 101.05 348.767 92.5559 347.722C98.4354 344.476 101.225 342.592 104.014 340.724C105.361 339.822 106.898 338.318 106.217 336.846C105.646 335.611 103.95 335.5 102.603 335.627C98.9267 335.975 95.2817 336.83 91.8269 338.144C100.749 332.381 109.37 326.65 115.266 318.545C121.161 310.439 123.998 299.658 120.828 290.143C117.817 281.088 109.687 274.28 100.559 271.478C91.4307 268.676 81.4782 269.531 72.3657 272.396C75.9632 268.312 79.2278 265.098 82.2548 261.679C83.2056 260.602 84.1724 259.272 83.8237 257.895C83.5385 256.723 82.3182 255.963 81.1137 255.837C79.9093 255.71 78.7207 256.09 77.5797 256.502C72.2231 258.481 67.2469 261.504 63.0314 265.351C65.6304 259.209 68.4355 253.209 70.4164 246.94C70.8919 245.451 71.1138 243.425 69.7191 242.713C68.4196 242.032 66.9299 243.172 65.9474 244.264C61.3198 249.409 57.7065 255.441 55.3452 261.948C52.1756 240.433 47.3262 217.604 34.0774 199.81C20.8444 182.015 -1.92888 170.332 -22.5469 172.374C-28.5691 255.489 -28.4106 339.046 -21.7545 434.556L-21.7228 434.541Z" fill="white"/>
</mask>
<g mask="url(#mask4_3_259)">
<path d="M125.107 265.446C125.107 265.446 35.2976 349.78 12.0806 444.15" stroke="#2E2854" stroke-width="0.75" stroke-linecap="round" stroke-linejoin="round"/>
<path d="M94.6002 260.016C94.6002 260.016 74.3783 301.779 67.5638 332.46" stroke="#2E2854" stroke-width="0.75" stroke-linecap="round" stroke-linejoin="round"/>
<path d="M152.286 341.025C152.286 341.025 77.2151 371.579 35.3452 384.276" stroke="#2E2854" stroke-width="0.75" stroke-linecap="round" stroke-linejoin="round"/>
<path d="M163.57 357.3C163.57 357.3 125.123 394.456 98.7841 435.791" stroke="#2E2854" stroke-width="0.75" stroke-linecap="round" stroke-linejoin="round"/>
<path d="M149.988 352.186C149.988 352.186 132.714 382.646 126.819 397.638" stroke="#2E2854" stroke-width="0.75" stroke-linecap="round" stroke-linejoin="round"/>
<path d="M179.022 400.107C179.022 400.107 161.462 422.857 147.469 437.897" stroke="#2E2854" stroke-width="0.75" stroke-linecap="round" stroke-linejoin="round"/>
<path d="M190.527 410.129C190.527 410.129 162.936 425.517 152.286 439.844" stroke="#2E2854" stroke-width="0.75" stroke-linecap="round" stroke-linejoin="round"/>
<path d="M55.7256 221.198C55.7256 221.198 6.40711 313.479 -41.2473 357.315" stroke="#2E2854" stroke-width="0.75" stroke-linecap="round" stroke-linejoin="round"/>
<path d="M30.6543 187.366C30.6543 187.366 30.9713 233.958 22.2391 277.257" stroke="#2E2854" stroke-width="0.75" stroke-linecap="round" stroke-linejoin="round"/>
</g>
<g style="mix-blend-mode:soft-light" opacity="0.15">
<path d="M160.987 437.786C162.762 438.451 164.537 439.132 166.296 439.844C173.459 433.591 182.207 430.868 185.139 423.744C187.548 417.886 184.79 410.762 179.751 406.931C174.711 403.1 167.928 402.15 161.652 402.989C155.377 403.844 149.449 406.298 143.602 408.751C148.261 400.82 153.126 395.722 156.565 389.675C160.004 383.627 161.906 376.408 160.305 369.616C158.356 361.289 151.351 354.83 143.427 351.569C135.519 348.307 126.755 347.833 118.198 347.959C109.64 348.086 101.05 348.782 92.5558 347.738C98.4353 344.492 101.225 342.608 104.014 340.74C105.361 339.838 106.898 338.334 106.217 336.861C105.646 335.627 103.95 335.516 102.603 335.642C98.9266 335.991 95.2816 336.846 91.8268 338.16C100.749 332.397 109.37 326.666 115.266 318.56C121.161 310.455 123.998 299.674 120.828 290.159C117.817 281.104 109.687 274.296 100.559 271.494C91.4306 268.692 81.4782 269.547 72.3657 272.412C75.9631 268.328 79.2278 265.114 82.2547 261.694C83.2056 260.618 84.1723 259.288 83.8236 257.911C83.5384 256.739 82.3181 255.979 81.1137 255.853C79.9092 255.726 78.7206 256.106 77.5796 256.518C72.223 258.496 67.2468 261.52 63.0313 265.367C65.6303 259.225 68.4354 253.225 70.4164 246.955C70.8918 245.467 71.1137 243.441 69.7191 242.728C68.4196 242.048 66.9299 243.188 65.9473 244.28C61.3197 249.425 57.7064 255.457 55.3451 261.964C52.1755 240.449 47.3261 217.62 34.0773 199.826C20.8444 182.031 -1.92894 170.348 -22.547 172.39C-22.7054 174.527 -22.8322 176.664 -22.9749 178.802C-3.26016 184.738 14.3309 197.546 25.9632 214.533C38.2611 232.501 43.7762 254.982 42.857 277.336C45.0599 273.552 49.5289 271.209 53.8871 271.541C53.8396 275.119 52.857 278.666 51.0503 281.737C53.8713 279.536 57.2151 277.336 60.7651 277.89C64.315 278.444 66.8982 283.415 64.1723 285.742C70.8918 282.956 78.0867 280.834 85.345 281.278C92.6033 281.705 99.9884 285.014 103.919 291.141C109.291 299.5 106.93 311.025 100.939 318.972C94.9488 326.919 86.0899 332.08 78.0709 338.065C82.4766 343.891 83.5859 352.059 82.3181 357.98C91.4781 356.888 100.4 354.133 109.592 353.31C118.784 352.471 128.752 353.88 135.662 359.991C142.524 366.07 145.139 375.838 144.632 384.989C144.125 394.139 140.892 402.894 138.182 413.2C146.486 408.957 156.185 407.485 165.377 409.084C169.101 409.733 173.158 411.221 174.695 414.656C176.533 418.788 173.871 423.459 171.066 427.005C167.991 430.884 164.584 434.493 160.923 437.818L160.987 437.786Z" fill="white"/>
</g>
<path d="M-37.9039 422.73C19.7822 409.495 81.557 396.482 136.818 417.617C170.447 430.472 198.149 454.82 228.577 474.056C282.824 508.362 346.517 526.536 410.59 530.542C458.402 533.534 508.482 529.259 552.126 548.985C576.928 560.194 597.927 578.511 622.459 590.273C688.418 621.904 770.541 602.416 835.898 635.297C879.622 657.303 909.701 700.412 926.294 746.417C942.871 792.423 947.546 841.722 952.078 890.419L-28.6488 907.754L-37.8881 422.73H-37.9039Z" fill="#8181CC"/>
<path d="M939.686 795.289C936.31 778.713 932.015 762.375 926.278 746.417C909.702 700.412 879.607 657.287 835.882 635.297C770.542 602.416 688.402 621.904 622.444 590.273C597.911 578.511 576.913 560.194 552.111 548.985C508.466 529.259 458.371 533.534 410.574 530.542C346.501 526.536 282.809 508.362 228.562 474.056C198.134 454.821 170.432 430.472 136.803 417.617C81.5416 396.482 19.7668 409.496 -37.9193 422.73L-37.3488 452.572L-11.4534 438.103C27.5956 413.295 78.7682 415.005 122.429 430.314C166.09 445.623 204.315 472.9 243.158 498.04C282.001 523.18 323.348 546.943 369.116 553.687C419.084 561.049 471.145 547.592 520.083 560.099C560.114 570.342 593.775 596.907 631.604 613.514C661.794 626.78 694.345 633.556 726.073 642.501C757.816 651.445 789.654 663.002 815.027 684.058C840.399 705.113 858.466 737.299 855.233 770.085L939.67 795.273L939.686 795.289Z" fill="#9191DB"/>
</g>
<path d="M168.499 556.188C176.597 445.67 176.771 334.566 168.99 224.016C168.99 224.016 181.209 225.346 183.998 227.736C191.526 337.859 194.838 448.251 193.887 558.626C186.137 559.576 178.118 558.326 168.499 556.188Z" fill="#47468A"/>
<path d="M185.583 305.595C222.191 278.396 252.762 243.124 277.04 203.483C279.307 204.274 281.589 205.066 285.123 207.694C261.177 251.8 226.692 290.127 185.345 318.592C185.266 314.017 185.186 309.426 185.583 305.595Z" fill="#47468A"/>
<path d="M109.798 233.673C131.874 266.032 155.456 297.378 180.416 327.584C180.416 327.584 181.034 319.605 180.733 317.357C161.129 290.808 141.526 264.275 121.922 237.726C120.353 235.604 118.736 233.436 116.439 232.122C114.156 230.823 111.019 230.618 109.782 233.673H109.798Z" fill="#47468A"/>
<path d="M181.272 570.009C181.272 570.009 183.205 490.789 185.282 444.119C185.282 444.119 188.911 547.45 188.911 568.125L181.272 570.009Z" fill="#51509E"/>
<path d="M177.722 313.241C177.722 313.241 180.258 391.195 180.828 409.052L182.445 313.241H177.722Z" fill="#51509E"/>
<path d="M256.201 238.913C256.201 238.913 238.023 262.502 226.739 274.613C226.739 274.613 248.99 253.731 258.815 241.937L256.201 238.913Z" fill="#51509E"/>
<path d="M127.469 248.412L146.597 274.613L143.919 276.275L127.469 248.412Z" fill="#51509E"/>
<path d="M174.014 242.776V272.365H177.722L174.014 242.776Z" fill="#51509E"/>
<path d="M171.145 558.943L175.741 507.064V560.067L171.145 558.943Z" fill="#51509E"/>
<path d="M-17.4439 253.177C7.32626 268.502 39.0219 272.127 66.613 262.787C89.4973 255.045 111.114 238.739 135.076 241.905C150.337 243.916 163.713 253.763 178.958 255.821C200.004 258.655 222.001 244.027 229.006 228.354C256.026 246.243 288.435 257.562 320.701 254.586C352.983 251.61 384.616 232.612 397.706 202.992C410.796 173.372 401.367 134.062 373.522 117.471C351.05 104.078 322.857 106.896 303.237 111.392C298.245 64.6262 264.394 22.1508 219.893 6.79447C175.392 -8.54607 122.524 4.02399 94.8855 38.6787C57.5322 22.1033 11.8112 25.9978 -22.1824 48.6525C-56.1601 71.3071 -77.3328 111.978 -76.382 152.791C-75.9858 169.667 -71.1839 187.794 -52.5944 200.791C-61.5801 206.285 -69.1871 214.485 -72.4676 224.475C-75.7481 234.465 -74.1633 246.291 -67.1585 254.143C-60.8511 261.219 -50.9621 264.338 -41.4851 264.164C-32.0081 263.974 -22.8322 260.824 -17.4598 253.193L-17.4439 253.177Z" fill="#6069CC"/>
<mask id="mask5_3_259" style="mask-type:luminance" maskUnits="userSpaceOnUse" x="-77" y="0" width="481" height="268">
<path d="M-17.4439 253.177C7.32626 268.502 39.0219 272.127 66.613 262.787C89.4973 255.045 111.114 238.739 135.076 241.905C150.337 243.916 163.713 253.763 178.958 255.821C200.004 258.655 222.001 244.027 229.006 228.354C256.026 246.243 288.435 257.562 320.701 254.586C352.983 251.61 384.616 232.612 397.706 202.992C410.796 173.372 401.367 134.062 373.522 117.471C351.05 104.078 322.857 106.896 303.237 111.392C298.245 64.6262 264.394 22.1508 219.893 6.79447C175.392 -8.54607 122.524 4.02399 94.8855 38.6787C57.5322 22.1033 11.8112 25.9978 -22.1824 48.6525C-56.1601 71.3071 -77.3328 111.978 -76.382 152.791C-75.9858 169.667 -71.1839 187.794 -52.5944 200.791C-61.5801 206.285 -69.1871 214.485 -72.4676 224.475C-75.7481 234.465 -74.1633 246.291 -67.1585 254.143C-60.8511 261.219 -50.9621 264.338 -41.4851 264.164C-32.0081 263.974 -22.8322 260.824 -17.4598 253.193L-17.4439 253.177Z" fill="white"/>
</mask>
<g mask="url(#mask5_3_259)">
<path d="M142.508 -9.30597C142.508 -9.30597 178.039 172.39 176.359 278.824" stroke="#2E2854" stroke-width="0.75" stroke-linecap="round" stroke-linejoin="round"/>
<path d="M210.226 -16.3984C210.226 -16.3984 183.776 68.1883 163.57 119.418" stroke="#2E2854" stroke-width="0.75" stroke-linecap="round" stroke-linejoin="round"/>
<path d="M-76.3978 89.6397C-76.3978 89.6397 14.6321 173.973 63.1106 290.887" stroke="#2E2854" stroke-width="0.75" stroke-linecap="round" stroke-linejoin="round"/>
<path d="M63.0948 16.9898C63.0948 16.9898 46.2961 152.078 31.2882 227.325" stroke="#2E2854" stroke-width="0.75" stroke-linecap="round" stroke-linejoin="round"/>
<path d="M94.8696 16.9898C94.8696 16.9898 65.7572 111.914 42.9521 160.469" stroke="#2E2854" stroke-width="0.75" stroke-linecap="round" stroke-linejoin="round"/>
<path d="M235.202 243.298C235.202 243.298 323.918 162.448 401.652 136.69" stroke="#2E2854" stroke-width="0.75" stroke-linecap="round" stroke-linejoin="round"/>
<path d="M344.806 101.339C344.806 101.339 316.311 157.049 306.105 187.651" stroke="#2E2854" stroke-width="0.75" stroke-linecap="round" stroke-linejoin="round"/>
<path d="M410.844 200.285C410.844 200.285 328.974 214.85 259.56 222.591" stroke="#2E2854" stroke-width="0.75" stroke-linecap="round" stroke-linejoin="round"/>
<path d="M253.697 12.3987C253.697 12.3987 224.014 163.129 222.35 243.298" stroke="#2E2854" stroke-width="0.75" stroke-linecap="round" stroke-linejoin="round"/>
<path d="M280.86 39.5494C280.86 39.5494 253.76 98.8694 233.031 134.759" stroke="#2E2854" stroke-width="0.75" stroke-linecap="round" stroke-linejoin="round"/>
</g>
<g style="mix-blend-mode:soft-light" opacity="0.15">
<path d="M373.538 117.471C351.066 104.078 322.872 106.896 303.253 111.392C298.261 64.6262 264.41 22.1508 219.909 6.79447C175.408 -8.54607 122.54 4.02399 94.9013 38.6787C57.548 22.1033 11.827 25.9979 -22.1666 48.6525C-36.5405 58.2304 -48.6166 71.0379 -57.6974 85.7135C-44.7339 72.9535 -29.2188 62.7898 -12.1983 56.3148C23.9665 42.5891 66.1851 45.8345 99.8142 64.927C132.049 28.3725 189.608 20.2353 232.223 43.5389C274.838 66.8585 298.958 119.703 288.625 167.134C301.62 159.646 315.376 160.469 326.454 166.453C337.532 172.453 345.741 183.504 348.261 195.852C350.923 208.913 347.357 222.639 341.034 234.385C337.326 241.272 332.698 247.589 327.738 253.652C357.5 248.76 385.598 230.443 397.737 202.96C410.828 173.34 401.398 134.031 373.554 117.439L373.538 117.471Z" fill="white"/>
</g>
<path d="M794.678 723.715C780.146 717.224 764.52 713.552 748.973 710.148C684.25 695.979 617.468 685.768 551.873 695.124C553.49 677.963 563.95 664.221 578.022 658.411C592.079 652.585 609.211 654.912 622.697 664.079C619.417 659.424 617.8 653.63 618.212 647.962C618.339 646.221 618.91 644.163 620.574 643.656C622.444 643.086 624.171 644.844 625.201 646.506C627.689 650.48 629.353 654.992 631.572 659.836C629.876 650.495 633.379 640.379 640.494 634.078C647.594 627.778 658.07 625.498 667.166 628.268C676.263 631.039 683.648 638.796 686.58 648.311C687.864 643.055 691.556 638.448 696.406 636.026C698.339 635.06 701.239 634.759 702.127 636.706C702.539 637.609 702.317 638.654 702.079 639.604C701.192 643.055 699.956 646.427 698.101 650.78C709.971 642.691 723.68 637.292 737.895 635.139C743.822 634.237 749.94 633.904 755.74 635.408C761.54 636.912 767.008 640.49 769.734 645.825C772.491 651.24 772.095 657.857 769.892 663.509C767.689 669.176 763.822 674.021 760.272 678.723C764.345 675.826 769.29 674.195 774.298 674.084C776.326 674.037 778.703 674.48 779.591 676.301C780.605 678.406 779.337 679.609 776.865 682.079C775.201 683.741 773.806 684.469 770.146 687.224C788.45 679.799 809.638 679.704 828.006 686.971C836.754 690.438 845.217 695.868 849.622 704.179C853.236 711.019 853.743 719.14 852.507 726.771C851.271 734.401 848.402 741.652 845.565 748.84C822.745 739.737 809.211 730.206 794.678 723.715Z" fill="#6069CC"/>
<mask id="mask6_3_259" style="mask-type:luminance" maskUnits="userSpaceOnUse" x="551" y="627" width="303" height="122">
<path d="M794.678 723.715C780.146 717.224 764.52 713.552 748.973 710.148C684.25 695.979 617.468 685.768 551.873 695.124C553.49 677.963 563.95 664.221 578.022 658.411C592.079 652.585 609.211 654.912 622.697 664.079C619.417 659.424 617.8 653.63 618.212 647.962C618.339 646.221 618.91 644.163 620.574 643.656C622.444 643.086 624.171 644.844 625.201 646.506C627.689 650.48 629.353 654.992 631.572 659.836C629.876 650.495 633.379 640.379 640.494 634.078C647.594 627.778 658.07 625.498 667.166 628.268C676.263 631.039 683.648 638.796 686.58 648.311C687.864 643.055 691.556 638.448 696.406 636.026C698.339 635.06 701.239 634.759 702.127 636.706C702.539 637.609 702.317 638.654 702.079 639.604C701.192 643.055 699.956 646.427 698.101 650.78C709.971 642.691 723.68 637.292 737.895 635.139C743.822 634.237 749.94 633.904 755.74 635.408C761.54 636.912 767.008 640.49 769.734 645.825C772.491 651.24 772.095 657.857 769.892 663.509C767.689 669.176 763.822 674.021 760.272 678.723C764.345 675.826 769.29 674.195 774.298 674.084C776.326 674.037 778.703 674.48 779.591 676.301C780.605 678.406 779.337 679.609 776.865 682.079C775.201 683.741 773.806 684.469 770.146 687.224C788.45 679.799 809.638 679.704 828.006 686.971C836.754 690.438 845.217 695.868 849.622 704.179C853.236 711.019 853.743 719.14 852.507 726.771C851.271 734.401 848.402 741.652 845.565 748.84C822.745 739.737 809.211 730.206 794.678 723.715Z" fill="white"/>
</mask>
<g mask="url(#mask6_3_259)">
<path d="M649.243 614.511C649.243 614.511 663.458 679.641 662.206 724.317" stroke="#2E2854" stroke-width="0.75" stroke-linecap="round" stroke-linejoin="round"/>
<path d="M672.222 621.398C672.222 621.398 664.758 651.604 658.038 665.409" stroke="#2E2854" stroke-width="0.75" stroke-linecap="round" stroke-linejoin="round"/>
<path d="M729.274 630.58C729.274 630.58 706.485 672.659 696.041 709.546" stroke="#2E2854" stroke-width="0.75" stroke-linecap="round" stroke-linejoin="round"/>
<path d="M757.071 627.081C757.071 627.081 718.196 673.166 703.363 713.868" stroke="#2E2854" stroke-width="0.75" stroke-linecap="round" stroke-linejoin="round"/>
<path d="M736.596 627.081L731.081 662.116" stroke="#2E2854" stroke-width="0.75" stroke-linecap="round" stroke-linejoin="round"/>
<path d="M573.791 653.551C573.791 653.551 581.525 678.818 582.365 699.272" stroke="#2E2854" stroke-width="0.75" stroke-linecap="round" stroke-linejoin="round"/>
<path d="M599.29 645.604C599.29 645.604 604.726 674.828 605.772 702.802" stroke="#2E2854" stroke-width="0.75" stroke-linecap="round" stroke-linejoin="round"/>
<path d="M587.167 648.532C587.167 648.532 595.518 664.633 603.569 675.066" stroke="#2E2854" stroke-width="0.75" stroke-linecap="round" stroke-linejoin="round"/>
<path d="M828.545 682.348C828.545 682.348 799.496 711.779 782.57 734.75" stroke="#2E2854" stroke-width="0.75" stroke-linecap="round" stroke-linejoin="round"/>
<path d="M802.222 675.066C802.222 675.066 799.29 696.28 798.244 715.309" stroke="#2E2854" stroke-width="0.75" stroke-linecap="round" stroke-linejoin="round"/>
<path d="M846.944 694.047C846.944 694.047 822.111 701.472 806.421 706" stroke="#2E2854" stroke-width="0.75" stroke-linecap="round" stroke-linejoin="round"/>
</g>
<g style="mix-blend-mode:soft-light" opacity="0.15">
<path d="M828.006 686.971C809.638 679.704 788.45 679.799 770.146 687.224C773.806 684.485 775.201 683.741 776.865 682.079C779.321 679.609 780.605 678.406 779.591 676.301C778.703 674.48 776.326 674.052 774.298 674.084C769.306 674.195 764.345 675.826 760.272 678.723C763.822 674.021 767.689 669.176 769.892 663.509C772.095 657.857 772.491 651.24 769.734 645.825C767.024 640.49 761.54 636.912 755.74 635.408C749.94 633.904 743.807 634.237 737.895 635.139C723.68 637.292 709.971 642.691 698.101 650.78C699.956 646.427 701.192 643.055 702.079 639.604C702.317 638.654 702.539 637.609 702.127 636.706C701.223 634.759 698.323 635.06 696.406 636.026C691.556 638.432 687.864 643.055 686.58 648.311C683.648 638.78 676.247 631.039 667.166 628.268C658.07 625.498 647.61 627.778 640.494 634.078C633.379 640.379 629.892 650.495 631.572 659.836C629.353 654.976 627.689 650.48 625.201 646.506C624.171 644.844 622.444 643.086 620.574 643.656C618.91 644.179 618.339 646.221 618.212 647.962C617.816 653.63 619.433 659.424 622.697 664.079C609.195 654.928 592.079 652.601 578.022 658.411C563.95 664.237 553.49 677.963 551.873 695.124C553.49 694.886 555.106 694.681 556.739 694.475C558.355 680.369 569.924 668.068 583.743 664C598.831 659.551 615.55 663.794 629.655 672.738C628.482 670.823 629.147 668.005 631.049 666.818C632.951 665.63 635.772 666.263 636.992 668.163C637.056 662.971 637.135 657.746 638.339 652.696C639.56 647.646 642.032 642.754 646.121 639.556C652.222 634.791 661.287 634.727 668.006 638.59C674.726 642.453 679.052 649.767 681.239 658.237C682.38 656.606 683.553 654.96 685.154 653.773C686.754 652.585 688.878 651.936 690.764 652.554C692.65 653.171 694.06 655.34 694.171 658.569C705.486 650.701 718.593 645.414 732.206 643.213C737.15 642.406 742.507 642.073 746.929 644.464C753.363 647.962 755.724 656.195 755.28 663.509C754.837 670.823 752.285 677.852 751.477 685.784C753.474 683.646 757.071 683.235 759.496 684.865C761.936 686.496 762.919 689.963 761.968 694.111C776.31 689.266 791.635 687.367 806.722 688.586C814.092 689.171 821.873 690.739 827.229 695.836C833.363 701.694 834.916 711.114 833.283 719.425C831.889 726.549 828.513 733.072 824.9 739.388C830.97 742.475 837.721 745.673 845.565 748.808C848.402 741.621 851.271 734.37 852.507 726.739C853.743 719.108 853.236 710.971 849.622 704.148C845.217 695.836 836.754 690.406 828.006 686.939V686.971Z" fill="white"/>
</g>
<path d="M99.6712 550.442C100.765 549.175 101.113 547.449 101.399 545.803C102.191 541.133 102.73 536.415 102.983 531.697C103.047 530.431 103.094 529.133 102.698 527.929C102.286 526.726 101.335 525.634 100.083 525.412C97.722 525.017 96.0738 527.66 95.3289 529.924C93.0627 536.811 92.508 544.267 93.76 551.423C96.5334 552.31 98.5936 551.724 99.6871 550.457L99.6712 550.442Z" fill="#6069CC"/>
<g style="mix-blend-mode:soft-light" opacity="0.15">
<path d="M99.1644 545.771L101.336 546.056C101.336 545.977 101.367 545.882 101.383 545.803C102.176 541.133 102.714 536.415 102.968 531.697C103.031 530.431 103.079 529.133 102.683 527.929C102.271 526.726 101.32 525.634 100.068 525.412C97.7064 525.017 96.0583 527.66 95.3134 529.924C93.6494 535.006 92.9204 540.373 93.1422 545.724L93.9188 544.901C94.315 540.848 95.2658 536.843 96.7397 533.027C96.9616 532.457 97.1993 531.887 97.6272 531.46C98.0551 531.032 98.7207 530.795 99.2754 531.017C100.163 531.381 100.274 532.584 100.21 533.55C100.036 536.019 99.8142 543.333 99.1803 545.771H99.1644Z" fill="white"/>
</g>
<path d="M74.2675 552.547C76.9141 541.418 79.4656 530.13 79.3229 518.7C79.2912 516.183 78.7207 513.08 76.3118 512.32C73.7762 511.512 71.4307 514.03 70.2263 516.404C66.7081 523.418 66.3753 531.571 66.2643 539.423C65.3135 535.259 64.0773 531.175 62.5559 527.185C62.1122 526.014 61.6209 524.827 60.7176 523.956C59.8143 523.085 58.4038 522.642 57.2944 523.196C55.8048 523.956 55.5987 525.966 55.6463 527.645C55.8998 536.193 57.6431 544.695 60.7651 552.658C67.8966 553.228 71.0821 552.895 74.2516 552.563L74.2675 552.547Z" fill="#6069CC"/>
<g style="mix-blend-mode:soft-light" opacity="0.15">
<path d="M72.1751 552.753C72.9041 552.69 73.5855 552.611 74.2829 552.547C76.9294 541.418 79.4809 530.13 79.3383 518.7C79.3066 516.183 78.7361 513.08 76.3272 512.32C73.7916 511.512 71.4461 514.03 70.2417 516.404C66.7234 523.418 66.3906 531.571 66.2797 539.423C65.3288 535.259 64.0927 531.175 62.5713 527.185C62.1276 526.014 61.6363 524.827 60.733 523.956C59.8296 523.085 58.4192 522.642 57.3098 523.196C55.8201 523.956 55.6141 525.966 55.6617 527.645C55.9152 536.193 57.6585 544.695 60.7805 552.658C61.1292 552.69 61.4461 552.706 61.7789 552.737C59.1165 545.898 57.6426 538.6 57.4366 531.27C57.4049 529.956 57.6743 528.278 58.958 528.009C60.3051 527.724 61.2401 529.275 61.7314 530.573C63.3795 534.99 65.0277 539.407 66.6759 543.824C67.2306 536.653 68.8312 529.56 71.4461 522.864C72.0483 521.312 73.1735 519.507 74.8217 519.745C76.66 520.03 77.0087 522.484 76.8819 524.336C76.2004 533.93 74.6157 543.476 72.1592 552.769L72.1751 552.753Z" fill="white"/>
</g>
<path d="M422.587 672.406C428.609 662.67 434.584 652.775 438.054 641.867C438.815 639.461 439.243 636.342 437.214 634.87C435.059 633.303 432.048 634.949 430.162 636.833C424.6 642.39 421.731 650.021 419.148 657.43C419.56 653.187 419.671 648.912 419.481 644.638C419.433 643.387 419.338 642.105 418.752 640.997C418.165 639.889 416.977 639.018 415.741 639.208C414.093 639.461 413.253 641.313 412.777 642.912C410.337 651.097 409.306 659.709 409.75 668.258C416.343 671.045 419.465 671.725 422.587 672.406Z" fill="#6069CC"/>
<g style="mix-blend-mode:soft-light" opacity="0.15">
<path d="M437.214 634.87C435.059 633.303 432.048 634.949 430.162 636.833C424.615 642.374 421.747 649.973 419.18 657.366C421.969 652.934 424.901 648.612 428.451 644.78C429.085 644.084 429.782 643.387 430.653 643.055C431.525 642.706 432.65 642.786 433.268 643.498C434.092 644.432 433.712 645.904 433.253 647.076C429.798 655.846 425.138 664.158 419.433 671.678C420.558 671.963 421.589 672.2 422.603 672.422C428.625 662.686 434.6 652.791 438.07 641.883C438.831 639.477 439.259 636.358 437.23 634.886L437.214 634.87Z" fill="white"/>
</g>
<g style="mix-blend-mode:soft-light" opacity="0.15">
<path d="M413.015 649.261C413.284 648.184 414.108 646.838 415.107 647.298C415.725 647.583 415.852 648.39 415.899 649.071C416.153 653.171 416.422 657.271 416.692 661.372C417.5 660.042 418.324 658.728 419.148 657.414C419.56 653.171 419.671 648.912 419.481 644.654C419.433 643.403 419.338 642.121 418.752 641.013C418.165 639.904 416.977 639.034 415.741 639.224C414.093 639.477 413.253 641.329 412.777 642.928C410.337 651.113 409.306 659.725 409.75 668.274C410.004 668.385 410.21 668.464 410.447 668.559C410.606 662.052 411.446 655.577 412.999 649.261H413.015Z" fill="white"/>
</g>
<path d="M267.563 589.323C271.24 587.107 274.822 584.526 277.231 580.98C279.639 577.434 280.685 572.716 278.974 568.774C276.914 564.009 271.319 561.555 266.121 561.619C260.923 561.682 255.979 563.756 251.193 565.782C256.613 558.88 260.337 552.516 262.017 545.502C263.712 538.489 263.174 530.7 259.275 524.621C255.424 518.621 248.72 514.916 241.795 513.238C225.186 509.233 206.422 516.768 197.231 531.175C195.281 527.122 194.299 522.895 193.332 518.684C192.984 517.196 192.35 515.423 190.844 515.185C188.974 514.9 187.849 517.196 187.548 519.048C186.755 523.972 187.278 529.085 189.022 533.755C185.044 530.494 180.892 526.916 176.121 524.352C171.351 521.787 165.82 520.267 160.464 521.17C155.123 522.072 150.068 525.713 148.451 530.89C146.28 537.84 150.511 545.027 153.316 553.196C192.571 552.041 232.08 565.956 267.563 589.355V589.323Z" fill="#B9AEE8"/>
<g style="mix-blend-mode:soft-light" opacity="0.15">
<path d="M269.053 577.133C266.454 580.078 263.332 582.579 259.877 584.463C262.46 586.03 265.012 587.645 267.548 589.323C271.224 587.107 274.806 584.526 277.215 580.98C279.624 577.434 280.67 572.716 278.958 568.774C276.882 564.009 271.303 561.555 266.105 561.619C260.907 561.682 255.963 563.756 251.177 565.782C256.597 558.88 260.321 552.516 262.001 545.502C263.697 538.489 263.158 530.7 259.259 524.621C255.408 518.621 248.704 514.916 241.779 513.238C225.17 509.233 206.407 516.768 197.215 531.175C195.266 527.122 194.283 522.895 193.316 518.684C192.968 517.196 192.334 515.423 190.828 515.185C188.958 514.9 187.833 517.196 187.548 519.048C186.755 523.972 187.278 529.085 189.022 533.755C185.044 530.494 180.892 526.916 176.121 524.352C171.351 521.787 165.82 520.267 160.464 521.17C155.123 522.072 150.068 525.713 148.451 530.89C146.28 537.84 150.511 545.027 153.316 553.196C153.728 553.196 154.125 553.196 154.537 553.196C152.587 547.513 151.906 541.386 152.619 535.434C152.984 532.41 153.824 529.18 156.169 527.249C159.703 524.336 164.996 525.46 169.164 527.328C176.724 530.7 183.396 536.003 188.388 542.589C188.657 540.199 190.4 538.03 192.682 537.27C194.965 536.494 197.659 537.159 199.307 538.916C204.299 527.011 216.375 518.415 229.259 517.56C233.792 517.259 238.467 517.877 242.54 519.871C246.613 521.866 250.067 525.349 251.525 529.655C252.999 534.056 252.334 538.853 251.446 543.413C249.956 551.043 247.88 558.547 245.376 566.637C248.768 566.51 251.985 569.392 252.777 573.191C256.755 570.563 261.399 568.964 266.153 568.584C267.611 568.474 269.227 568.521 270.321 569.487C271.414 570.452 271.668 572.115 271.288 573.508C270.907 574.917 269.988 576.104 269.037 577.197L269.053 577.133Z" fill="white"/>
</g>
<mask id="mask7_3_259" style="mask-type:luminance" maskUnits="userSpaceOnUse" x="147" y="512" width="133" height="78">
<path d="M267.563 589.323C271.24 587.107 274.822 584.526 277.231 580.98C279.639 577.434 280.685 572.716 278.974 568.774C276.914 564.009 271.319 561.555 266.121 561.619C260.923 561.682 255.979 563.756 251.193 565.782C256.613 558.88 260.337 552.516 262.017 545.502C263.712 538.489 263.174 530.7 259.275 524.621C255.424 518.621 248.72 514.916 241.795 513.238C225.186 509.233 206.422 516.768 197.231 531.175C195.281 527.122 194.299 522.895 193.332 518.684C192.984 517.196 192.35 515.423 190.844 515.185C188.974 514.9 187.849 517.196 187.548 519.048C186.755 523.972 187.278 529.085 189.022 533.755C185.044 530.494 180.892 526.916 176.121 524.352C171.351 521.787 165.82 520.267 160.464 521.17C155.123 522.072 150.068 525.713 148.451 530.89C146.28 537.84 150.511 545.027 153.316 553.196C192.571 552.041 232.08 565.956 267.563 589.355V589.323Z" fill="white"/>
</mask>
<g mask="url(#mask7_3_259)">
<path d="M254.885 509.027C254.885 509.027 222.73 552.246 213.839 569.36" stroke="#2E2854" stroke-width="0.75" stroke-linecap="round" stroke-linejoin="round"/>
<path d="M239.006 505.465C239.006 505.465 230.067 533.28 226.137 549.508" stroke="#2E2854" stroke-width="0.75" stroke-linecap="round" stroke-linejoin="round"/>
<path d="M270.765 527.486C270.765 527.486 239.117 546.927 221.605 556.363" stroke="#2E2854" stroke-width="0.75" stroke-linecap="round" stroke-linejoin="round"/>
<path d="M209.117 509.027C209.117 509.027 204.727 540.974 199.291 561.223" stroke="#2E2854" stroke-width="0.75" stroke-linecap="round" stroke-linejoin="round"/>
<path d="M154.584 513.412C154.584 513.412 171.716 539.819 179.449 558.563" stroke="#2E2854" stroke-width="0.75" stroke-linecap="round" stroke-linejoin="round"/>
</g>
<path d="M366.359 652.554C374.33 646.601 380.86 638.717 385.234 629.772C386.042 628.11 386.723 625.957 385.519 624.548C384.172 622.997 381.636 623.646 379.814 624.595C374.045 627.603 369.211 632.353 366.121 638.068C366.581 633.334 366.438 628.537 365.693 623.851C365.424 622.142 364.631 620.052 362.904 620.02C361.351 619.989 360.416 621.683 359.909 623.139C357.532 630.089 357.104 637.688 358.688 644.86C359.291 647.598 362.159 650.068 366.343 652.554H366.359Z" fill="#B9AEE8"/>
<g style="mix-blend-mode:soft-light" opacity="0.15">
<path d="M379.829 624.611C374.061 627.619 369.227 632.369 366.137 638.084C366.596 633.35 366.454 628.553 365.709 623.867C365.439 622.157 364.647 620.068 362.92 620.036C361.367 620.004 360.432 621.698 359.924 623.155C357.69 629.709 357.199 636.849 358.482 643.656C358.34 639.904 358.736 636.121 359.734 632.495C359.956 631.704 360.352 630.77 361.176 630.706C362.08 630.627 362.65 631.64 362.92 632.511C363.807 635.377 364.156 638.416 363.95 641.424C366.929 638.084 369.94 634.712 373.68 632.258C374.425 631.767 375.233 631.308 376.121 631.15C377.008 631.007 378.007 631.229 378.577 631.91C379.544 633.065 378.942 634.822 378.229 636.136C375.677 640.775 372.016 644.812 367.642 647.788L369.037 650.416C375.804 644.764 381.367 637.688 385.233 629.772C386.042 628.11 386.723 625.957 385.519 624.548C384.172 622.996 381.636 623.646 379.813 624.595L379.829 624.611Z" fill="white"/>
</g>
<mask id="mask8_3_259" style="mask-type:luminance" maskUnits="userSpaceOnUse" x="-3" y="79" width="1190" height="792">
<path d="M1186.5 79.0802H-2.0874V870.646H1186.5V79.0802Z" fill="white"/>
</mask>
<g mask="url(#mask8_3_259)">
<path d="M-7.30129 625.672C3.95066 618.136 18.4197 615.619 31.5576 618.912C44.6954 622.189 56.2802 631.228 63.903 643.783C66.0742 637.624 70.0995 632.131 75.3134 628.205C76.6922 627.16 78.2136 626.21 79.9093 625.941C81.605 625.672 83.5385 626.226 84.4893 627.666C85.456 629.139 85.1866 631.07 84.7587 632.78C83.3641 638.273 80.5908 643.418 76.6763 647.804C84.8697 644.147 93.1422 640.458 101.922 638.637C110.702 636.801 120.163 636.959 128.293 640.775C136.423 644.59 142.904 652.506 143.412 661.466C144.077 673.039 135.345 682.791 127.199 691.055L-9.94788 701.377L-7.31714 625.703L-7.30129 625.672Z" fill="#6069CC"/>
<mask id="mask9_3_259" style="mask-type:luminance" maskUnits="userSpaceOnUse" x="-10" y="617" width="154" height="85">
<path d="M-7.30129 625.672C3.95066 618.136 18.4197 615.619 31.5576 618.912C44.6954 622.189 56.2802 631.228 63.903 643.783C66.0742 637.624 70.0995 632.131 75.3134 628.205C76.6922 627.16 78.2136 626.21 79.9093 625.941C81.605 625.672 83.5385 626.226 84.4893 627.666C85.456 629.139 85.1866 631.07 84.7587 632.78C83.3641 638.273 80.5908 643.418 76.6763 647.804C84.8697 644.147 93.1422 640.458 101.922 638.637C110.702 636.801 120.163 636.959 128.293 640.775C136.423 644.59 142.904 652.506 143.412 661.466C144.077 673.039 135.345 682.791 127.199 691.055L-9.94788 701.377L-7.31714 625.703L-7.30129 625.672Z" fill="white"/>
</mask>
<g mask="url(#mask9_3_259)">
<path d="M19.7826 594.468C19.7826 594.468 29.8143 666.707 28.1344 720.976" stroke="#2E2854" stroke-width="0.75" stroke-linecap="round" stroke-linejoin="round"/>
<path d="M48.2136 611.171C48.2136 611.171 36.1217 644.163 26.2802 657.73" stroke="#2E2854" stroke-width="0.75" stroke-linecap="round" stroke-linejoin="round"/>
<path d="M103.792 629.123C103.792 629.123 100.036 664.19 92.0962 703.024" stroke="#2E2854" stroke-width="0.75" stroke-linecap="round" stroke-linejoin="round"/>
<path d="M141.827 634.443C141.827 634.443 112.984 667.118 103.792 703.024" stroke="#2E2854" stroke-width="0.75" stroke-linecap="round" stroke-linejoin="round"/>
</g>
<g style="mix-blend-mode:soft-light" opacity="0.15">
<path d="M113.697 692.037L127.215 691.024C135.361 682.76 144.093 673.008 143.427 661.435C142.92 652.49 136.423 644.559 128.309 640.743C120.194 636.928 110.733 636.786 101.938 638.606C93.1581 640.427 84.8855 644.115 76.6922 647.773C80.6066 643.387 83.38 638.242 84.7746 632.749C85.2025 631.039 85.4719 629.107 84.5052 627.635C83.5543 626.194 81.6208 625.64 79.9251 625.909C78.2136 626.179 76.708 627.128 75.3293 628.173C70.0995 632.1 66.0741 637.593 63.9188 643.751C56.2802 631.197 44.6954 622.157 31.5734 618.88C18.4356 615.603 3.96651 618.12 -7.28544 625.64L-7.68164 637.134C2.76208 629.772 16.2961 626.923 28.8159 629.519C41.7319 632.195 53.3483 640.633 60.3531 651.904C62.1597 650.638 63.5702 648.865 65.3768 647.598C67.1835 646.332 69.6874 645.619 71.5892 646.743C72.7619 647.44 73.4751 648.722 73.792 650.052C74.109 651.366 74.0614 652.744 74.1407 654.2C79.9568 650.749 85.8839 647.377 92.3023 645.255C98.7207 643.134 105.741 642.327 112.271 644.036C118.816 645.746 124.806 650.258 127.31 656.527C129.846 662.844 128.594 670.19 125.567 676.285C122.635 682.19 118.166 687.161 113.713 692.021L113.697 692.037Z" fill="white"/>
</g>
<path d="M497.373 781.452C501.715 772.222 498.72 760.618 491.699 753.209C484.679 745.8 474.346 742.19 464.156 741.494C453.966 740.797 443.791 742.76 433.839 745.024C438.863 742.65 441.874 739.927 444.346 736.792C445.138 735.779 445.915 734.576 445.677 733.309C445.281 731.061 442.302 730.539 440.035 730.792C434.029 731.473 428.245 734.069 423.728 738.106C427.658 732.518 431.145 725.71 432.619 718.333C434.077 710.955 433.3 702.865 429.021 696.675C424.124 689.599 415.503 686.037 407.072 684.311C387.389 680.274 366.137 684.438 349.433 695.599C348.578 690.834 348.958 686.892 348.688 682.981C348.609 681.762 348.372 680.385 347.373 679.673C346.47 679.024 345.17 679.15 344.219 679.72C343.253 680.29 342.571 681.208 341.953 682.142C337.135 689.441 335.471 698.29 333.902 706.887C331.811 700.475 329.782 695.219 326.914 690.454C325.868 688.696 324.14 686.781 322.159 687.319C320.384 687.794 319.734 689.947 319.528 691.768C318.958 697.008 319.782 702.375 321.906 707.203C310.622 698.86 293.284 698.844 281.779 707.552C270.273 716.275 265.63 732.961 271.636 749.473C338.007 786.296 417.817 798.265 497.373 781.436V781.452Z" fill="#B9AEE8"/>
<mask id="mask10_3_259" style="mask-type:luminance" maskUnits="userSpaceOnUse" x="269" y="679" width="231" height="110">
<path d="M497.373 781.452C501.715 772.222 498.72 760.618 491.699 753.209C484.679 745.8 474.346 742.19 464.156 741.494C453.966 740.797 443.791 742.76 433.839 745.024C438.863 742.65 441.874 739.927 444.346 736.792C445.138 735.779 445.915 734.576 445.677 733.309C445.281 731.061 442.302 730.539 440.035 730.792C434.029 731.473 428.245 734.069 423.728 738.106C427.658 732.518 431.145 725.71 432.619 718.333C434.077 710.955 433.3 702.865 429.021 696.675C424.124 689.599 415.503 686.037 407.072 684.311C387.389 680.274 366.137 684.438 349.433 695.599C348.578 690.834 348.958 686.892 348.688 682.981C348.609 681.762 348.372 680.385 347.373 679.673C346.47 679.024 345.17 679.15 344.219 679.72C343.253 680.29 342.571 681.208 341.953 682.142C337.135 689.441 335.471 698.29 333.902 706.887C331.811 700.475 329.782 695.219 326.914 690.454C325.868 688.696 324.14 686.781 322.159 687.319C320.384 687.794 319.734 689.947 319.528 691.768C318.958 697.008 319.782 702.375 321.906 707.203C310.622 698.86 293.284 698.844 281.779 707.552C270.273 716.275 265.63 732.961 271.636 749.473C338.007 786.296 417.817 798.265 497.373 781.436V781.452Z" fill="white"/>
</mask>
<g mask="url(#mask10_3_259)">
<path d="M384.203 661.261C384.203 661.261 380.067 749.774 369.195 804.059" stroke="#2E2854" stroke-width="0.75" stroke-linecap="round" stroke-linejoin="round"/>
<path d="M407.23 674.322C407.23 674.322 388.879 711.763 378.942 732.802" stroke="#2E2854" stroke-width="0.75" stroke-linecap="round" stroke-linejoin="round"/>
<path d="M361.161 676.823C361.161 676.823 370.622 722.512 376.39 756.66" stroke="#2E2854" stroke-width="0.75" stroke-linecap="round" stroke-linejoin="round"/>
<path d="M318.213 681.525C318.213 681.525 335.772 710.021 332.635 783.922" stroke="#2E2854" stroke-width="0.75" stroke-linecap="round" stroke-linejoin="round"/>
<path d="M307.547 686.211C307.547 686.211 309.734 743.204 309.734 775.151" stroke="#2E2854" stroke-width="0.75" stroke-linecap="round" stroke-linejoin="round"/>
<path d="M286.866 696.232C286.866 696.232 302.349 720.976 309.196 738.201" stroke="#2E2854" stroke-width="0.75" stroke-linecap="round" stroke-linejoin="round"/>
<path d="M481.224 738.201C481.224 738.201 456.153 762.312 442.032 797.062" stroke="#2E2854" stroke-width="0.75" stroke-linecap="round" stroke-linejoin="round"/>
<path d="M454.568 730.681C454.568 730.681 439.829 775.769 425.107 798.629" stroke="#2E2854" stroke-width="0.75" stroke-linecap="round" stroke-linejoin="round"/>
</g>
<g style="mix-blend-mode:soft-light" opacity="0.15">
<path d="M464.156 741.494C453.966 740.797 443.791 742.76 433.839 745.024C438.863 742.65 441.874 739.927 444.346 736.792C445.138 735.779 445.915 734.576 445.677 733.309C445.281 731.061 442.302 730.539 440.035 730.792C434.029 731.473 428.245 734.069 423.728 738.106C427.658 732.518 431.145 725.71 432.619 718.333C434.077 710.955 433.3 702.865 429.021 696.675C424.124 689.599 415.503 686.037 407.072 684.311C387.389 680.274 366.137 684.438 349.433 695.599C348.578 690.834 348.958 686.892 348.688 682.981C348.609 681.762 348.372 680.385 347.373 679.673C346.47 679.024 345.17 679.15 344.219 679.72C343.253 680.29 342.571 681.208 341.953 682.142C337.135 689.441 335.471 698.29 333.902 706.887C331.811 700.475 329.782 695.219 326.914 690.454C325.868 688.696 324.14 686.781 322.159 687.319C320.384 687.794 319.734 689.947 319.528 691.768C318.958 697.008 319.782 702.375 321.906 707.203C310.622 698.86 293.284 698.844 281.779 707.552C270.273 716.275 265.63 732.961 271.636 749.473C272.587 749.995 273.554 750.502 274.505 751.024C272.587 741.953 272.682 732.248 276.898 724.064C281.097 715.91 289.338 709.958 298.419 708.517C307.484 707.077 317.167 710.195 324.758 716.686C323.887 713.947 325.773 710.686 328.578 710.069C331.367 709.451 334.473 711.62 335.725 714.296C336.438 709.657 338.229 705.177 340.907 701.314C341.858 699.937 343.078 698.544 344.742 698.243C346.739 697.894 348.688 699.351 349.592 701.156C350.495 702.96 350.574 705.066 350.923 707.346C359.703 699.367 370.638 693.762 382.238 691.293C387.627 690.137 393.332 689.678 398.593 691.324C405.582 693.525 411.05 699.383 413.855 706.143C416.66 712.903 417.024 720.47 416.089 727.721C415.138 734.971 412.951 742 411.303 749.267C413.332 748.317 415.027 746.734 417.056 745.737C419.085 744.755 421.763 744.518 423.363 746.085C425.091 747.795 424.71 750.613 425.123 754.919C432.397 750.565 441.24 748.618 449.544 750.296C457.848 751.99 465.471 757.484 469.005 765.178C472.064 771.858 471.747 780.075 468.007 786.328C477.785 785.125 487.579 783.494 497.373 781.42C501.715 772.191 498.72 760.586 491.699 753.177C484.679 745.768 474.346 742.159 464.156 741.462V741.494Z" fill="white"/>
</g>
<path d="M789.401 878.356C795.708 854.181 785.011 826.555 764.076 812.909C743.141 799.262 713.521 800.608 693.918 816.091C695.486 807.874 696.311 801.162 696.311 794.45C696.311 792.122 695.898 789.32 693.759 788.402C692.285 787.769 690.494 788.418 689.369 789.558C688.244 790.698 687.642 792.249 687.135 793.785C684.757 801.02 684.028 808.793 684.995 816.344C679.147 811.183 673.22 808.539 667.578 809.204C661.921 809.869 656.786 813.795 653.189 819.368C658.64 838.35 661.414 858.107 661.509 881.427C703.331 878.403 745.36 878.007 789.417 878.324L789.401 878.356Z" fill="#6069CC"/>
<mask id="mask11_3_259" style="mask-type:luminance" maskUnits="userSpaceOnUse" x="653" y="788" width="139" height="94">
<path d="M789.401 878.356C795.708 854.181 785.011 826.555 764.076 812.909C743.141 799.262 713.521 800.608 693.918 816.091C695.486 807.874 696.311 801.162 696.311 794.45C696.311 792.122 695.898 789.32 693.759 788.402C692.285 787.769 690.494 788.418 689.369 789.558C688.244 790.698 687.642 792.249 687.135 793.785C684.757 801.02 684.028 808.793 684.995 816.344C679.147 811.183 673.22 808.539 667.578 809.204C661.921 809.869 656.786 813.795 653.189 819.368C658.64 838.35 661.414 858.107 661.509 881.427C703.331 878.403 745.36 878.007 789.417 878.324L789.401 878.356Z" fill="white"/>
</mask>
<g mask="url(#mask11_3_259)">
<path d="M752.998 795.194C752.998 795.194 722.903 830.26 710.367 886.952" stroke="#2E2854" stroke-width="0.75" stroke-linecap="round" stroke-linejoin="round"/>
<path d="M779.638 814.508C779.638 814.508 746.532 831.732 725.566 841.073" stroke="#2E2854" stroke-width="0.75" stroke-linecap="round" stroke-linejoin="round"/>
<path d="M709.432 799.88C709.432 799.88 697.515 867.938 693.347 886.936" stroke="#2E2854" stroke-width="0.75" stroke-linecap="round" stroke-linejoin="round"/>
<path d="M701.382 805.531C701.382 805.531 701.524 823.231 703.49 833.284" stroke="#2E2854" stroke-width="0.75" stroke-linecap="round" stroke-linejoin="round"/>
<path d="M722.19 799.056C722.19 799.056 711.398 833.474 700.383 850.397" stroke="#2E2854" stroke-width="0.75" stroke-linecap="round" stroke-linejoin="round"/>
</g>
<g style="mix-blend-mode:soft-light" opacity="0.15">
<path d="M764.076 812.924C743.141 799.278 713.521 800.623 693.918 816.106C695.486 807.89 696.311 801.177 696.311 794.465C696.311 792.138 695.899 789.336 693.759 788.417C692.285 787.784 690.494 788.433 689.369 789.573C688.244 790.713 687.642 792.264 687.135 793.8C684.758 801.035 684.029 808.808 684.995 816.36C679.147 811.199 673.22 808.555 667.578 809.22C661.921 809.885 656.786 813.811 653.189 819.383C653.506 820.492 653.791 821.616 654.076 822.724C657.816 818.592 663.395 816.122 668.973 816.312C675.487 816.534 681.746 820.349 686.897 826.318C686.786 824.449 686.675 822.471 687.515 820.777C688.339 819.083 690.431 817.864 692.143 818.655C693.109 819.098 693.743 820.096 694.013 821.125C694.282 822.154 694.25 823.23 694.52 824.323C705.296 815.932 719.242 811.135 732.792 812.956C746.342 814.777 759.115 823.785 763.791 836.624C766.596 844.334 766.437 852.867 764.742 860.909C763.49 866.877 761.413 872.608 759.147 878.276C769.147 878.244 779.211 878.276 789.401 878.355C795.708 854.181 785.011 826.555 764.076 812.908V812.924Z" fill="white"/>
</g>
<path d="M605.518 783.51C605.661 779.6 605.835 775.626 607.198 771.953C608.561 768.28 611.334 764.924 615.106 763.895C620.59 762.391 626.818 767.141 626.834 772.824C627.658 768.787 629.338 764.924 631.731 761.584C632.697 760.222 634.552 758.845 635.851 759.89C636.739 760.602 636.643 761.964 636.422 763.072C635.724 766.555 634.615 769.959 633.109 773.172C638.624 768.676 648.038 770.354 651.651 776.497C655.265 782.639 652.174 791.663 645.962 794.687C647.689 796.666 648.244 799.595 647.325 802.064C646.406 804.534 644.076 806.402 641.477 806.782L605.518 783.526V783.51Z" fill="#B9AEE8"/>
<g style="mix-blend-mode:soft-light" opacity="0.15">
<path d="M633.109 773.172C634.615 769.959 635.724 766.555 636.422 763.072C636.643 761.964 636.739 760.602 635.851 759.89C634.552 758.845 632.697 760.222 631.731 761.584C629.338 764.94 627.658 768.787 626.834 772.824C626.834 767.156 620.59 762.407 615.106 763.895C611.334 764.924 608.561 768.28 607.198 771.953C605.835 775.626 605.677 779.6 605.518 783.51L608.656 785.537C608.656 783.257 608.751 780.977 609.29 778.761C609.956 775.959 611.398 773.236 613.775 771.589C616.136 769.943 619.528 769.61 621.889 771.257C624.171 772.856 625.027 775.785 626.849 778.824C626.453 777.304 627.689 775.579 629.258 775.452C630.827 775.325 632.317 776.845 632.159 778.412C633.997 776.117 636.754 774.439 639.686 774.344C642.634 774.249 645.677 775.927 646.77 778.666C647.594 780.756 647.246 783.162 646.279 785.188C645.312 787.215 643.791 788.924 642.063 790.84C641.319 795.494 638.387 799.737 634.345 802.159L641.493 806.782C644.092 806.418 646.422 804.534 647.341 802.064C648.26 799.595 647.705 796.666 645.978 794.687C652.19 791.663 655.28 782.639 651.667 776.497C648.054 770.354 638.656 768.676 633.125 773.172H633.109Z" fill="white"/>
</g>
<path d="M-22.1983 694.206C59.9727 684.533 146.787 675.477 222.445 708.961C256.47 724.016 286.644 747.13 321.414 760.381C392.333 787.405 471.398 770.196 547.262 772.159C577.246 772.935 608.292 777.193 633.537 793.357C669.052 816.107 686.659 857.791 702.269 896.957L-13.4661 905.934L-22.2141 694.222L-22.1983 694.206Z" fill="#D3D3F0"/>
<g style="mix-blend-mode:soft-light" opacity="0.6">
<path d="M633.553 793.357C608.307 777.178 577.261 772.935 547.277 772.159C471.398 770.196 392.349 787.405 321.43 760.381C286.66 747.13 256.485 724.016 222.46 708.96C146.803 675.493 59.9881 684.533 -22.1829 694.206L-21.1369 719.457L-15.7486 719.124C37.8804 697.942 98.4825 702.755 154.409 716.781C210.336 730.808 263.759 753.573 319.56 768.09C377.658 783.209 438.101 789.257 498.054 785.932C520.082 784.713 542.174 782.244 564.123 784.302C586.073 786.36 608.37 793.484 624.202 808.824C647.198 831.099 651.952 864.962 653.299 897.575L702.301 896.957C686.706 857.806 669.083 816.123 633.569 793.357H633.553Z" fill="white"/>
</g>
</g>
</svg>
