<svg width="174" height="81" viewBox="0 0 174 81" fill="none" xmlns="http://www.w3.org/2000/svg">
<circle cx="40" cy="41" r="40" fill="#301E67"/>
<path d="M72.6364 61.4119C71.2443 61.4119 70.0038 61.1705 68.9148 60.6875C67.8258 60.1951 66.964 59.4706 66.3295 58.5142C65.7045 57.5483 65.392 56.3456 65.392 54.9062C65.392 53.6941 65.6146 52.6761 66.0597 51.8523C66.5047 51.0284 67.1108 50.3655 67.8778 49.8636C68.6449 49.3617 69.5161 48.983 70.4915 48.7273C71.4763 48.4716 72.5085 48.2917 73.5881 48.1875C74.857 48.0549 75.8797 47.9318 76.6562 47.8182C77.4328 47.6951 77.9962 47.5152 78.3466 47.2784C78.697 47.0417 78.8722 46.6913 78.8722 46.2273V46.142C78.8722 45.2424 78.5881 44.5464 78.0199 44.054C77.4612 43.5616 76.6657 43.3153 75.6335 43.3153C74.5445 43.3153 73.678 43.5568 73.0341 44.0398C72.3902 44.5133 71.964 45.1098 71.7557 45.8295L66.1591 45.375C66.4432 44.0492 67.0019 42.9034 67.8352 41.9375C68.6686 40.9621 69.7434 40.214 71.0597 39.6932C72.3854 39.1629 73.9195 38.8977 75.6619 38.8977C76.8741 38.8977 78.0341 39.0398 79.142 39.3239C80.2595 39.608 81.2491 40.0483 82.1108 40.6449C82.982 41.2415 83.6686 42.0085 84.1705 42.946C84.6723 43.8741 84.9233 44.9867 84.9233 46.2841V61H79.1847V57.9744H79.0142C78.6638 58.6562 78.1951 59.2576 77.608 59.7784C77.0208 60.2898 76.3153 60.6922 75.4915 60.9858C74.6676 61.2699 73.7159 61.4119 72.6364 61.4119ZM74.3693 57.2358C75.2595 57.2358 76.0455 57.0606 76.7273 56.7102C77.4091 56.3504 77.9441 55.8674 78.3324 55.2614C78.7206 54.6553 78.9148 53.9687 78.9148 53.2017V50.8864C78.7254 51.0095 78.465 51.1231 78.1335 51.2273C77.8116 51.322 77.447 51.4119 77.0398 51.4972C76.6326 51.5729 76.2254 51.6439 75.8182 51.7102C75.411 51.767 75.0417 51.8191 74.7102 51.8665C74 51.9706 73.3797 52.1364 72.8494 52.3636C72.3191 52.5909 71.9072 52.8987 71.6136 53.2869C71.3201 53.6657 71.1733 54.1392 71.1733 54.7074C71.1733 55.5312 71.4716 56.161 72.0682 56.5966C72.6742 57.0227 73.4413 57.2358 74.3693 57.2358ZM95.669 48.3864V61H89.6179V39.1818H95.3849V43.0312H95.6406C96.1236 41.7623 96.9332 40.7585 98.0696 40.0199C99.206 39.2718 100.584 38.8977 102.203 38.8977C103.718 38.8977 105.039 39.2292 106.166 39.892C107.293 40.5549 108.169 41.5019 108.794 42.733C109.419 43.9545 109.732 45.4129 109.732 47.108V61H103.68V48.1875C103.69 46.8523 103.349 45.8106 102.658 45.0625C101.966 44.3049 101.015 43.9261 99.8026 43.9261C98.9882 43.9261 98.2685 44.1013 97.6435 44.4517C97.0279 44.8021 96.545 45.3134 96.1946 45.9858C95.8537 46.6487 95.6785 47.4489 95.669 48.3864ZM119.984 54.7216L119.998 47.4631H120.879L127.867 39.1818H134.813L125.424 50.1477H123.989L119.984 54.7216ZM114.501 61V31.9091H120.552V61H114.501ZM128.137 61L121.717 51.4972L125.751 47.2216L135.225 61H128.137ZM146.827 61.4261C144.582 61.4261 142.651 60.9716 141.031 60.0625C139.421 59.1439 138.181 57.8466 137.31 56.1705C136.438 54.4848 136.003 52.4915 136.003 50.1903C136.003 47.946 136.438 45.9763 137.31 44.2812C138.181 42.5862 139.407 41.2652 140.989 40.3182C142.58 39.3712 144.445 38.8977 146.585 38.8977C148.025 38.8977 149.365 39.1297 150.605 39.5938C151.855 40.0483 152.944 40.7348 153.872 41.6534C154.81 42.572 155.539 43.7273 156.06 45.1193C156.58 46.5019 156.841 48.1212 156.841 49.9773V51.6392H138.418V47.8892H151.145C151.145 47.018 150.955 46.2462 150.577 45.5739C150.198 44.9015 149.672 44.3759 149 43.9972C148.337 43.6089 147.565 43.4148 146.685 43.4148C145.766 43.4148 144.952 43.6278 144.241 44.054C143.541 44.4706 142.991 45.0341 142.594 45.7443C142.196 46.4451 141.992 47.2263 141.983 48.0881V51.6534C141.983 52.733 142.182 53.6657 142.58 54.4517C142.987 55.2377 143.56 55.8438 144.298 56.2699C145.037 56.696 145.913 56.9091 146.926 56.9091C147.598 56.9091 148.214 56.8144 148.773 56.625C149.331 56.4356 149.81 56.1515 150.207 55.7727C150.605 55.3939 150.908 54.9299 151.116 54.3807L156.713 54.75C156.429 56.0947 155.847 57.2689 154.966 58.2727C154.095 59.267 152.968 60.0436 151.585 60.6023C150.212 61.1515 148.626 61.4261 146.827 61.4261ZM172.395 39.1818V43.7273H159.256V39.1818H172.395ZM162.239 33.9545H168.29V54.2955C168.29 54.8542 168.375 55.2898 168.545 55.6023C168.716 55.9053 168.953 56.1184 169.256 56.2415C169.568 56.3646 169.928 56.4261 170.335 56.4261C170.619 56.4261 170.903 56.4025 171.188 56.3551C171.472 56.2983 171.689 56.2557 171.841 56.2273L172.793 60.7301C172.49 60.8248 172.063 60.9337 171.514 61.0568C170.965 61.1894 170.297 61.2699 169.511 61.2983C168.053 61.3551 166.775 61.161 165.676 60.7159C164.587 60.2708 163.74 59.5795 163.134 58.642C162.527 57.7045 162.229 56.5208 162.239 55.0909V33.9545Z" fill="white"/>
<path d="M42.2543 63.1015C38.6703 63.1015 35.2356 62.6322 31.9503 61.6935C28.665 60.7122 26.0196 59.4535 24.0143 57.9175L27.5343 50.1095C29.4543 51.4748 31.7156 52.6055 34.3183 53.5015C36.9636 54.3548 39.6303 54.7815 42.3183 54.7815C44.3663 54.7815 46.009 54.5895 47.2463 54.2055C48.5263 53.7788 49.465 53.2028 50.0623 52.4775C50.6596 51.7522 50.9583 50.9202 50.9583 49.9815C50.9583 48.7868 50.489 47.8482 49.5503 47.1655C48.6116 46.4402 47.3743 45.8642 45.8383 45.4375C44.3023 44.9682 42.5956 44.5415 40.7183 44.1575C38.8836 43.7308 37.0276 43.2188 35.1503 42.6215C33.3156 42.0242 31.6303 41.2562 30.0943 40.3175C28.5583 39.3788 27.2996 38.1415 26.3183 36.6055C25.3796 35.0695 24.9103 33.1068 24.9103 30.7175C24.9103 28.1575 25.593 25.8322 26.9583 23.7415C28.3663 21.6082 30.457 19.9228 33.2303 18.6855C36.0463 17.4055 39.5663 16.7655 43.7903 16.7655C46.6063 16.7655 49.3796 17.1068 52.1103 17.7895C54.841 18.4295 57.2516 19.4108 59.3423 20.7335L56.1423 28.6055C54.0516 27.4108 51.961 26.5362 49.8703 25.9815C47.7796 25.3842 45.7316 25.0855 43.7263 25.0855C41.721 25.0855 40.0783 25.3202 38.7983 25.7895C37.5183 26.2588 36.601 26.8775 36.0463 27.6455C35.4916 28.3708 35.2143 29.2242 35.2143 30.2055C35.2143 31.3575 35.6836 32.2962 36.6223 33.0215C37.561 33.7042 38.7983 34.2588 40.3343 34.6855C41.8703 35.1122 43.5556 35.5388 45.3903 35.9655C47.2676 36.3922 49.1236 36.8828 50.9583 37.4375C52.8356 37.9922 54.5423 38.7388 56.0783 39.6775C57.6143 40.6162 58.8516 41.8535 59.7903 43.3895C60.7716 44.9255 61.2623 46.8668 61.2623 49.2135C61.2623 51.7308 60.5583 54.0348 59.1503 56.1255C57.7423 58.2162 55.6303 59.9015 52.8143 61.1815C50.041 62.4615 46.521 63.1015 42.2543 63.1015Z" fill="white"/>
</svg>
